<svg fill="none" height="106" viewBox="0 0 615 106" width="615" xmlns="http://www.w3.org/2000/svg"><g stroke="#fff" stroke-width="2"><path d="m1 103.96v-102.24h43.344c4.704 0 9.024 1.008 12.96 3.024 4.032 1.92 7.488 4.512 10.368 7.776 2.88 3.168 5.136 6.816 6.768 10.944 1.632 4.032 2.448 8.112 2.448 12.24 0 4.32-.768 8.544-2.304 12.672-1.536 4.032-3.696 7.632-6.48 10.8s-6.144 5.712-10.08 7.632-8.256 2.88-12.96 2.88h-24.192v34.272zm19.872-51.696h23.04c3.648 0 6.672-1.488 9.072-4.464 2.496-2.976 3.744-7.008 3.744-12.096 0-2.592-.384-4.896-1.152-6.912-.768-2.112-1.776-3.888-3.024-5.328s-2.736-2.496-4.464-3.168c-1.632-.768-3.312-1.152-5.04-1.152h-22.176z"/><path d="m90.7188 103.96v-102.24h45.2162c4.704 0 9.024 1.008 12.96 3.024 4.032 1.92 7.488 4.512 10.368 7.776 2.88 3.168 5.136 6.816 6.768 10.944 1.632 4.032 2.448 8.112 2.448 12.24 0 6.624-1.68 12.672-5.04 18.144-3.264 5.376-7.728 9.264-13.392 11.664l23.328 38.448h-22.32l-20.88-34.272h-19.584v34.272zm19.8722-51.696h24.912c1.824 0 3.504-.432 5.04-1.296 1.632-.864 3.024-2.016 4.176-3.456 1.152-1.536 2.064-3.312 2.736-5.328s1.008-4.176 1.008-6.48c0-2.4-.384-4.608-1.152-6.624s-1.824-3.744-3.168-5.184c-1.248-1.536-2.736-2.688-4.464-3.456-1.632-.864-3.312-1.296-5.04-1.296h-24.048z"/><path d="m230.116 104.68c-7.488 0-14.304-1.44-20.448-4.32-6.048-2.976-11.28-6.864-15.696-11.664-4.32-4.896-7.68-10.464-10.08-16.704s-3.6-12.624-3.6-19.152c0-6.816 1.248-13.344 3.744-19.584 2.592-6.24 6.096-11.76 10.512-16.56 4.512-4.8 9.84-8.592 15.984-11.376 6.144-2.88 12.816-4.32 20.016-4.32 7.392 0 14.112 1.536 20.16 4.608 6.144 2.976 11.376 6.912 15.696 11.808s7.68 10.464 10.08 16.704 3.6 12.576 3.6 19.008c0 6.816-1.248 13.344-3.744 19.584-2.496 6.144-5.952 11.616-10.368 16.416-4.416 4.704-9.696 8.496-15.84 11.376-6.144 2.784-12.816 4.176-20.016 4.176zm-29.664-51.84c0 4.416.672 8.688 2.016 12.816s3.264 7.776 5.76 10.944c2.592 3.168 5.712 5.712 9.36 7.632 3.744 1.92 7.968 2.88 12.672 2.88 4.8 0 9.024-.96 12.672-2.88 3.744-2.016 6.864-4.656 9.36-7.92 2.592-3.264 4.512-6.912 5.76-10.944 1.344-4.128 2.016-8.304 2.016-12.528 0-4.416-.72-8.688-2.16-12.816-1.344-4.128-3.312-7.776-5.904-10.944-2.496-3.168-5.616-5.664-9.36-7.488-3.648-1.92-7.776-2.88-12.384-2.88-4.8 0-9.072 1.008-12.816 3.024-3.744 1.92-6.864 4.512-9.36 7.776-2.496 3.168-4.416 6.816-5.76 10.944-1.248 4.032-1.872 8.16-1.872 12.384z"/><path d="m366.32 92.44c-8.16 8.16-17.664 12.24-28.512 12.24-6.72 0-13.056-1.344-19.008-4.032-5.856-2.688-10.992-6.384-15.408-11.088-4.32-4.704-7.776-10.224-10.368-16.56-2.496-6.432-3.744-13.344-3.744-20.736 0-7.008 1.248-13.584 3.744-19.728 2.592-6.24 6.096-11.664 10.512-16.272 4.512-4.704 9.792-8.4 15.84-11.088 6.048-2.784 12.624-4.176 19.728-4.176 9.6 0 17.808 2.016 24.624 6.048 6.912 4.032 12.096 9.456 15.552 16.272l-14.832 10.944c-2.592-5.088-6.24-8.976-10.944-11.664-4.608-2.688-9.648-4.032-15.12-4.032-4.32 0-8.304.912-11.952 2.736-3.552 1.824-6.624 4.32-9.216 7.488-2.496 3.168-4.464 6.816-5.904 10.944-1.344 4.128-2.016 8.496-2.016 13.104 0 4.8.768 9.312 2.304 13.536 1.536 4.128 3.648 7.728 6.336 10.8s5.856 5.52 9.504 7.344c3.744 1.728 7.776 2.592 12.096 2.592 9.888 0 18.816-4.656 26.784-13.968v-7.2h-20.592v-14.544h37.008v52.56h-16.416z"/><path d="m399.672 103.96v-102.24h45.216c4.704 0 9.024 1.008 12.96 3.024 4.032 1.92 7.488 4.512 10.368 7.776 2.88 3.168 5.136 6.816 6.768 10.944 1.632 4.032 2.448 8.112 2.448 12.24 0 6.624-1.68 12.672-5.04 18.144-3.264 5.376-7.728 9.264-13.392 11.664l23.328 38.448h-22.32l-20.88-34.272h-19.584v34.272zm19.872-51.696h24.912c1.824 0 3.504-.432 5.04-1.296 1.632-.864 3.024-2.016 4.176-3.456 1.152-1.536 2.064-3.312 2.736-5.328s1.008-4.176 1.008-6.48c0-2.4-.384-4.608-1.152-6.624s-1.824-3.744-3.168-5.184c-1.248-1.536-2.736-2.688-4.464-3.456-1.632-.864-3.312-1.296-5.04-1.296h-24.048z"/><path d="m495.438 103.96v-102.24h19.872v102.24z"/><path d="m613.105 19.144h-32.688v84.816h-19.728v-84.816h-32.688v-17.424h85.104z"/></g></svg>