<svg fill="none" height="142" viewBox="0 0 828 142" width="828" xmlns="http://www.w3.org/2000/svg" xmlns:xlink="http://www.w3.org/1999/xlink"><mask id="a" fill="#000" height="142" maskUnits="userSpaceOnUse" width="828" x="0" y="0"><path d="m0 0h828v142h-828z" fill="#fff"/><path d="m48.936 5.168h18.288l11.52 33.84 11.52-33.84h18.432l-17.424 46.512 12.96 32.688 28.944-79.488h21.6l-41.616 102.24h-16.704l-17.712-42.912-17.712 42.912h-16.704l-41.328-102.24h21.312l29.088 79.488 12.672-32.688z" fill="#000"/><path d="m189.089 108.56c-6.048 0-11.52-1.008-16.416-3.024-4.896-2.112-9.072-4.944-12.528-8.496s-6.144-7.68-8.064-12.384c-1.824-4.704-2.737-9.648-2.737-14.832 0-5.376.913-10.416 2.737-15.12 1.824-4.8 4.464-8.976 7.92-12.528 3.456-3.648 7.632-6.528 12.528-8.64 4.992-2.112 10.559-3.168 16.703-3.168s11.616 1.056 16.416 3.168c4.896 2.112 9.025 4.944 12.385 8.496 3.456 3.552 6.048 7.68 7.776 12.384 1.824 4.704 2.735 9.6 2.735 14.688 0 1.248-.048 2.448-.144 3.6 0 1.152-.095 2.112-.287 2.88h-58.321c.288 2.976 1.008 5.616 2.16 7.92 1.153 2.304 2.641 4.272 4.465 5.904s3.888 2.88 6.192 3.744 4.704 1.296 7.2 1.296c3.84 0 7.44-.912 10.8-2.736 3.456-1.92 5.808-4.416 7.056-7.488l16.56 4.608c-2.784 5.76-7.248 10.512-13.392 14.256-6.048 3.648-13.296 5.472-21.744 5.472zm19.584-45.504c-.48-5.664-2.592-10.176-6.336-13.536-3.648-3.456-8.112-5.184-13.392-5.184-2.592 0-5.041.48-7.345 1.44-2.208.864-4.175 2.112-5.903 3.744s-3.169 3.6-4.321 5.904c-1.056 2.304-1.679 4.848-1.871 7.632z" fill="#000"/><path d="m283.212 108.56c-5.76 0-10.896-1.296-15.408-3.888s-8.064-6.144-10.656-10.656v13.104h-16.848v-105.12h19.296v42.912c2.688-4.608 6.192-8.16 10.512-10.656 4.416-2.592 9.552-3.888 15.408-3.888 4.896 0 9.36 1.056 13.392 3.168s7.488 4.944 10.368 8.496c2.976 3.552 5.232 7.728 6.768 12.528 1.632 4.8 2.448 9.84 2.448 15.12 0 5.472-.912 10.56-2.736 15.264-1.728 4.704-4.176 8.832-7.344 12.384-3.168 3.456-6.912 6.192-11.232 8.208s-8.976 3.024-13.968 3.024zm-5.328-16.416c3.072 0 5.904-.576 8.496-1.728 2.592-1.248 4.8-2.88 6.624-4.896s3.216-4.368 4.176-7.056c1.056-2.688 1.584-5.568 1.584-8.64s-.48-6-1.44-8.784-2.352-5.232-4.176-7.344c-1.728-2.112-3.792-3.792-6.192-5.04s-5.04-1.872-7.92-1.872c-4.32 0-8.208 1.44-11.664 4.32-3.36 2.784-5.952 6.24-7.776 10.368v18c.672 1.92 1.632 3.648 2.88 5.184 1.344 1.536 2.832 2.88 4.464 4.032 1.632 1.056 3.408 1.92 5.328 2.592 1.92.576 3.792.864 5.616.864z" fill="#000"/><path d="m368.031 107.12v-102.24h37.152c8.352 0 15.648 1.344 21.888 4.03199 6.336 2.68801 11.616 6.33601 15.84 10.94401s7.392 10.032 9.504 16.272c2.112 6.144 3.168 12.72 3.168 19.728 0 7.776-1.2 14.832-3.6 21.168-2.304 6.24-5.664 11.616-10.08 16.128-4.416 4.416-9.744 7.872-15.984 10.368-6.144 2.4-13.056 3.6-20.736 3.6zm67.536-51.264c0-4.896-.672-9.408-2.016-13.536s-3.312-7.68-5.904-10.656-5.808-5.28-9.648-6.912c-3.744-1.632-8.016-2.448-12.816-2.448h-17.28v67.392h17.28c4.896 0 9.216-.864 12.96-2.592 3.84-1.728 7.008-4.08 9.504-7.056 2.592-3.072 4.56-6.672 5.904-10.8s2.016-8.592 2.016-13.392z" fill="#000"/><path d="m504.229 108.56c-6.048 0-11.52-1.008-16.416-3.024-4.896-2.112-9.072-4.944-12.528-8.496s-6.144-7.68-8.064-12.384c-1.824-4.704-2.736-9.648-2.736-14.832 0-5.376.912-10.416 2.736-15.12 1.824-4.8 4.464-8.976 7.92-12.528 3.456-3.648 7.632-6.528 12.528-8.64 4.992-2.112 10.56-3.168 16.704-3.168s11.616 1.056 16.416 3.168c4.896 2.112 9.024 4.944 12.384 8.496 3.456 3.552 6.048 7.68 7.776 12.384 1.824 4.704 2.736 9.6 2.736 14.688 0 1.248-.048 2.448-.144 3.6 0 1.152-.096 2.112-.288 2.88h-58.32c.288 2.976 1.008 5.616 2.16 7.92s2.64 4.272 4.464 5.904 3.888 2.88 6.192 3.744 4.704 1.296 7.2 1.296c3.84 0 7.44-.912 10.8-2.736 3.456-1.92 5.808-4.416 7.056-7.488l16.56 4.608c-2.784 5.76-7.248 10.512-13.392 14.256-6.048 3.648-13.296 5.472-21.744 5.472zm19.584-45.504c-.48-5.664-2.592-10.176-6.336-13.536-3.648-3.456-8.112-5.184-13.392-5.184-2.592 0-5.04.48-7.344 1.44-2.208.864-4.176 2.112-5.904 3.744s-3.168 3.6-4.32 5.904c-1.056 2.304-1.68 4.848-1.872 7.632z" fill="#000"/><path d="m583.952 108.56c-6.336 0-12.528-1.008-18.576-3.024s-11.232-4.896-15.552-8.64l7.2-12.096c4.608 3.264 9.072 5.76 13.392 7.488 4.416 1.632 8.784 2.448 13.104 2.448 3.84 0 6.864-.72 9.072-2.16s3.312-3.504 3.312-6.192-1.296-4.656-3.888-5.904-6.816-2.688-12.672-4.32c-4.896-1.344-9.072-2.64-12.528-3.888s-6.24-2.64-8.352-4.176c-2.112-1.632-3.648-3.456-4.608-5.472-.96-2.112-1.44-4.608-1.44-7.488 0-3.84.72-7.296 2.16-10.368 1.536-3.072 3.648-5.664 6.336-7.776 2.688-2.208 5.808-3.888 9.36-5.04 3.648-1.152 7.584-1.728 11.808-1.728 5.664 0 10.944.816 15.84 2.448 4.992 1.632 9.552 4.272 13.68 7.92l-7.776 11.664c-3.84-2.88-7.584-4.992-11.232-6.336-3.552-1.344-7.104-2.016-10.656-2.016-3.264 0-6 .672-8.208 2.016s-3.312 3.504-3.312 6.48c0 1.344.24 2.448.72 3.312.576.864 1.44 1.632 2.592 2.304s2.64 1.344 4.464 2.016c1.92.576 4.272 1.2 7.056 1.872 5.184 1.344 9.6 2.688 13.248 4.032 3.744 1.344 6.768 2.88 9.072 4.608 2.4 1.728 4.128 3.744 5.184 6.048 1.152 2.208 1.728 4.896 1.728 8.064 0 7.392-2.736 13.248-8.208 17.568-5.472 4.224-12.912 6.336-22.32 6.336z" fill="#000"/><path d="m627.018 107.12v-75.456h19.296v75.456zm0-85.968v-19.152h19.296v19.152z" fill="#000"/><path d="m693.242 107.552c-5.088 0-9.697-1.008-13.825-3.024s-7.728-4.752-10.8-8.208c-2.976-3.552-5.279-7.632-6.911-12.24s-2.448-9.504-2.448-14.688c0-5.472.863-10.56 2.591-15.264s4.128-8.832 7.2-12.384c3.073-3.552 6.769-6.336 11.089-8.352s9.071-3.024 14.255-3.024c5.856 0 10.993 1.344 15.409 4.032 4.416 2.592 8.063 6.096 10.943 10.512v-13.248h16.849v71.856c0 5.568-1.056 10.56-3.168 14.976s-5.041 8.16-8.785 11.232c-3.648 3.072-8.064 5.424-13.248 7.056-5.088 1.632-10.655 2.448-16.703 2.448-8.256 0-15.216-1.392-20.88-4.176-5.568-2.688-10.369-6.528-14.401-11.52l10.513-10.224c2.88 3.552 6.479 6.336 10.799 8.352 4.416 2.016 9.073 3.024 13.969 3.024 2.976 0 5.807-.432 8.495-1.296 2.784-.768 5.232-2.016 7.344-3.744s3.744-3.936 4.896-6.624c1.248-2.688 1.872-5.856 1.872-9.504v-9.504c-2.496 4.32-5.999 7.68-10.511 10.08-4.512 2.304-9.36 3.456-14.544 3.456zm6.479-15.408c2.112 0 4.129-.336 6.049-1.008s3.695-1.584 5.327-2.736 3.072-2.496 4.32-4.032 2.208-3.168 2.88-4.896v-18c-1.728-4.416-4.464-7.968-8.208-10.656-3.648-2.688-7.487-4.032-11.519-4.032-2.976 0-5.665.672-8.065 2.016-2.4 1.248-4.464 2.976-6.192 5.184-1.728 2.112-3.072 4.56-4.032 7.344-.864 2.784-1.296 5.664-1.296 8.64 0 3.072.529 5.952 1.585 8.64s2.496 5.04 4.32 7.056c1.92 2.016 4.127 3.6 6.623 4.752s5.232 1.728 8.208 1.728z" fill="#000"/><path d="m825.115 107.12h-19.296v-42.336c0-6.048-1.056-10.464-3.168-13.248s-5.04-4.176-8.784-4.176c-1.92 0-3.888.384-5.904 1.152s-3.936 1.872-5.76 3.312c-1.728 1.344-3.312 2.976-4.752 4.896s-2.496 4.032-3.168 6.336v44.064h-19.296v-75.456h17.424v13.968c2.784-4.8 6.816-8.544 12.096-11.232s11.232-4.032 17.856-4.032c4.704 0 8.544.864 11.52 2.592s5.28 3.984 6.912 6.768 2.736 5.952 3.312 9.504c.672 3.552 1.008 7.152 1.008 10.8z" fill="#000"/></mask><g stroke="#fff" stroke-width="4"><path d="m48.936 5.168h18.288l11.52 33.84 11.52-33.84h18.432l-17.424 46.512 12.96 32.688 28.944-79.488h21.6l-41.616 102.24h-16.704l-17.712-42.912-17.712 42.912h-16.704l-41.328-102.24h21.312l29.088 79.488 12.672-32.688z" mask="url(#a)"/><path d="m189.089 108.56c-6.048 0-11.52-1.008-16.416-3.024-4.896-2.112-9.072-4.944-12.528-8.496s-6.144-7.68-8.064-12.384c-1.824-4.704-2.737-9.648-2.737-14.832 0-5.376.913-10.416 2.737-15.12 1.824-4.8 4.464-8.976 7.92-12.528 3.456-3.648 7.632-6.528 12.528-8.64 4.992-2.112 10.559-3.168 16.703-3.168s11.616 1.056 16.416 3.168c4.896 2.112 9.025 4.944 12.385 8.496 3.456 3.552 6.048 7.68 7.776 12.384 1.824 4.704 2.735 9.6 2.735 14.688 0 1.248-.048 2.448-.144 3.6 0 1.152-.095 2.112-.287 2.88h-58.321c.288 2.976 1.008 5.616 2.16 7.92 1.153 2.304 2.641 4.272 4.465 5.904s3.888 2.88 6.192 3.744 4.704 1.296 7.2 1.296c3.84 0 7.44-.912 10.8-2.736 3.456-1.92 5.808-4.416 7.056-7.488l16.56 4.608c-2.784 5.76-7.248 10.512-13.392 14.256-6.048 3.648-13.296 5.472-21.744 5.472zm19.584-45.504c-.48-5.664-2.592-10.176-6.336-13.536-3.648-3.456-8.112-5.184-13.392-5.184-2.592 0-5.041.48-7.345 1.44-2.208.864-4.175 2.112-5.903 3.744s-3.169 3.6-4.321 5.904c-1.056 2.304-1.679 4.848-1.871 7.632z" mask="url(#a)"/><path d="m283.212 108.56c-5.76 0-10.896-1.296-15.408-3.888s-8.064-6.144-10.656-10.656v13.104h-16.848v-105.12h19.296v42.912c2.688-4.608 6.192-8.16 10.512-10.656 4.416-2.592 9.552-3.888 15.408-3.888 4.896 0 9.36 1.056 13.392 3.168s7.488 4.944 10.368 8.496c2.976 3.552 5.232 7.728 6.768 12.528 1.632 4.8 2.448 9.84 2.448 15.12 0 5.472-.912 10.56-2.736 15.264-1.728 4.704-4.176 8.832-7.344 12.384-3.168 3.456-6.912 6.192-11.232 8.208s-8.976 3.024-13.968 3.024zm-5.328-16.416c3.072 0 5.904-.576 8.496-1.728 2.592-1.248 4.8-2.88 6.624-4.896s3.216-4.368 4.176-7.056c1.056-2.688 1.584-5.568 1.584-8.64s-.48-6-1.44-8.784-2.352-5.232-4.176-7.344c-1.728-2.112-3.792-3.792-6.192-5.04s-5.04-1.872-7.92-1.872c-4.32 0-8.208 1.44-11.664 4.32-3.36 2.784-5.952 6.24-7.776 10.368v18c.672 1.92 1.632 3.648 2.88 5.184 1.344 1.536 2.832 2.88 4.464 4.032 1.632 1.056 3.408 1.92 5.328 2.592 1.92.576 3.792.864 5.616.864z" mask="url(#a)"/><path d="m368.031 107.12v-102.24h37.152c8.352 0 15.648 1.344 21.888 4.03199 6.336 2.68801 11.616 6.33601 15.84 10.94401s7.392 10.032 9.504 16.272c2.112 6.144 3.168 12.72 3.168 19.728 0 7.776-1.2 14.832-3.6 21.168-2.304 6.24-5.664 11.616-10.08 16.128-4.416 4.416-9.744 7.872-15.984 10.368-6.144 2.4-13.056 3.6-20.736 3.6zm67.536-51.264c0-4.896-.672-9.408-2.016-13.536s-3.312-7.68-5.904-10.656-5.808-5.28-9.648-6.912c-3.744-1.632-8.016-2.448-12.816-2.448h-17.28v67.392h17.28c4.896 0 9.216-.864 12.96-2.592 3.84-1.728 7.008-4.08 9.504-7.056 2.592-3.072 4.56-6.672 5.904-10.8s2.016-8.592 2.016-13.392z" mask="url(#a)"/><path d="m504.229 108.56c-6.048 0-11.52-1.008-16.416-3.024-4.896-2.112-9.072-4.944-12.528-8.496s-6.144-7.68-8.064-12.384c-1.824-4.704-2.736-9.648-2.736-14.832 0-5.376.912-10.416 2.736-15.12 1.824-4.8 4.464-8.976 7.92-12.528 3.456-3.648 7.632-6.528 12.528-8.64 4.992-2.112 10.56-3.168 16.704-3.168s11.616 1.056 16.416 3.168c4.896 2.112 9.024 4.944 12.384 8.496 3.456 3.552 6.048 7.68 7.776 12.384 1.824 4.704 2.736 9.6 2.736 14.688 0 1.248-.048 2.448-.144 3.6 0 1.152-.096 2.112-.288 2.88h-58.32c.288 2.976 1.008 5.616 2.16 7.92s2.64 4.272 4.464 5.904 3.888 2.88 6.192 3.744 4.704 1.296 7.2 1.296c3.84 0 7.44-.912 10.8-2.736 3.456-1.92 5.808-4.416 7.056-7.488l16.56 4.608c-2.784 5.76-7.248 10.512-13.392 14.256-6.048 3.648-13.296 5.472-21.744 5.472zm19.584-45.504c-.48-5.664-2.592-10.176-6.336-13.536-3.648-3.456-8.112-5.184-13.392-5.184-2.592 0-5.04.48-7.344 1.44-2.208.864-4.176 2.112-5.904 3.744s-3.168 3.6-4.32 5.904c-1.056 2.304-1.68 4.848-1.872 7.632z" mask="url(#a)"/><path d="m583.952 108.56c-6.336 0-12.528-1.008-18.576-3.024s-11.232-4.896-15.552-8.64l7.2-12.096c4.608 3.264 9.072 5.76 13.392 7.488 4.416 1.632 8.784 2.448 13.104 2.448 3.84 0 6.864-.72 9.072-2.16s3.312-3.504 3.312-6.192-1.296-4.656-3.888-5.904-6.816-2.688-12.672-4.32c-4.896-1.344-9.072-2.64-12.528-3.888s-6.24-2.64-8.352-4.176c-2.112-1.632-3.648-3.456-4.608-5.472-.96-2.112-1.44-4.608-1.44-7.488 0-3.84.72-7.296 2.16-10.368 1.536-3.072 3.648-5.664 6.336-7.776 2.688-2.208 5.808-3.888 9.36-5.04 3.648-1.152 7.584-1.728 11.808-1.728 5.664 0 10.944.816 15.84 2.448 4.992 1.632 9.552 4.272 13.68 7.92l-7.776 11.664c-3.84-2.88-7.584-4.992-11.232-6.336-3.552-1.344-7.104-2.016-10.656-2.016-3.264 0-6 .672-8.208 2.016s-3.312 3.504-3.312 6.48c0 1.344.24 2.448.72 3.312.576.864 1.44 1.632 2.592 2.304s2.64 1.344 4.464 2.016c1.92.576 4.272 1.2 7.056 1.872 5.184 1.344 9.6 2.688 13.248 4.032 3.744 1.344 6.768 2.88 9.072 4.608 2.4 1.728 4.128 3.744 5.184 6.048 1.152 2.208 1.728 4.896 1.728 8.064 0 7.392-2.736 13.248-8.208 17.568-5.472 4.224-12.912 6.336-22.32 6.336z" mask="url(#a)"/><path d="m627.018 107.12v-75.456h19.296v75.456zm0-85.968v-19.152h19.296v19.152z" mask="url(#a)"/><path d="m693.242 107.552c-5.088 0-9.697-1.008-13.825-3.024s-7.728-4.752-10.8-8.208c-2.976-3.552-5.279-7.632-6.911-12.24s-2.448-9.504-2.448-14.688c0-5.472.863-10.56 2.591-15.264s4.128-8.832 7.2-12.384c3.073-3.552 6.769-6.336 11.089-8.352s9.071-3.024 14.255-3.024c5.856 0 10.993 1.344 15.409 4.032 4.416 2.592 8.063 6.096 10.943 10.512v-13.248h16.849v71.856c0 5.568-1.056 10.56-3.168 14.976s-5.041 8.16-8.785 11.232c-3.648 3.072-8.064 5.424-13.248 7.056-5.088 1.632-10.655 2.448-16.703 2.448-8.256 0-15.216-1.392-20.88-4.176-5.568-2.688-10.369-6.528-14.401-11.52l10.513-10.224c2.88 3.552 6.479 6.336 10.799 8.352 4.416 2.016 9.073 3.024 13.969 3.024 2.976 0 5.807-.432 8.495-1.296 2.784-.768 5.232-2.016 7.344-3.744s3.744-3.936 4.896-6.624c1.248-2.688 1.872-5.856 1.872-9.504v-9.504c-2.496 4.32-5.999 7.68-10.511 10.08-4.512 2.304-9.36 3.456-14.544 3.456zm6.479-15.408c2.112 0 4.129-.336 6.049-1.008s3.695-1.584 5.327-2.736 3.072-2.496 4.32-4.032 2.208-3.168 2.88-4.896v-18c-1.728-4.416-4.464-7.968-8.208-10.656-3.648-2.688-7.487-4.032-11.519-4.032-2.976 0-5.665.672-8.065 2.016-2.4 1.248-4.464 2.976-6.192 5.184-1.728 2.112-3.072 4.56-4.032 7.344-.864 2.784-1.296 5.664-1.296 8.64 0 3.072.529 5.952 1.585 8.64s2.496 5.04 4.32 7.056c1.92 2.016 4.127 3.6 6.623 4.752s5.232 1.728 8.208 1.728z" mask="url(#a)"/><path d="m825.115 107.12h-19.296v-42.336c0-6.048-1.056-10.464-3.168-13.248s-5.04-4.176-8.784-4.176c-1.92 0-3.888.384-5.904 1.152s-3.936 1.872-5.76 3.312c-1.728 1.344-3.312 2.976-4.752 4.896s-2.496 4.032-3.168 6.336v44.064h-19.296v-75.456h17.424v13.968c2.784-4.8 6.816-8.544 12.096-11.232s11.232-4.032 17.856-4.032c4.704 0 8.544.864 11.52 2.592s5.28 3.984 6.912 6.768 2.736 5.952 3.312 9.504c.672 3.552 1.008 7.152 1.008 10.8z" mask="url(#a)"/></g></svg>