<svg width="828" height="142" viewBox="0 0 828 142" fill="none" xmlns="http://www.w3.org/2000/svg">
<mask id="path-1-outside-1" maskUnits="userSpaceOnUse" x="0" y="0" width="828" height="142" fill="black">
<rect fill="white" width="828" height="142"/>
<path d="M48.936 5.168H67.224L78.744 39.008L90.264 5.168H108.696L91.272 51.68L104.232 84.368L133.176 4.88H154.776L113.16 107.12H96.456L78.744 64.208L61.032 107.12H44.328L3 4.88H24.312L53.4 84.368L66.072 51.68L48.936 5.168Z"/>
<path d="M189.089 108.56C183.041 108.56 177.569 107.552 172.673 105.536C167.777 103.424 163.601 100.592 160.145 97.04C156.689 93.488 154.001 89.36 152.081 84.656C150.257 79.952 149.344 75.008 149.344 69.824C149.344 64.448 150.257 59.408 152.081 54.704C153.905 49.904 156.545 45.728 160.001 42.176C163.457 38.528 167.633 35.648 172.529 33.536C177.521 31.424 183.088 30.368 189.232 30.368C195.376 30.368 200.848 31.424 205.648 33.536C210.544 35.648 214.673 38.48 218.033 42.032C221.489 45.584 224.081 49.712 225.809 54.416C227.633 59.12 228.544 64.016 228.544 69.104C228.544 70.352 228.496 71.552 228.4 72.704C228.4 73.856 228.305 74.816 228.113 75.584H169.792C170.08 78.56 170.8 81.2 171.952 83.504C173.105 85.808 174.593 87.776 176.417 89.408C178.241 91.04 180.305 92.288 182.609 93.152C184.913 94.016 187.313 94.448 189.809 94.448C193.649 94.448 197.249 93.536 200.609 91.712C204.065 89.792 206.417 87.296 207.665 84.224L224.225 88.832C221.441 94.592 216.977 99.344 210.833 103.088C204.785 106.736 197.537 108.56 189.089 108.56ZM208.673 63.056C208.193 57.392 206.081 52.88 202.337 49.52C198.689 46.064 194.225 44.336 188.945 44.336C186.353 44.336 183.904 44.816 181.6 45.776C179.392 46.64 177.425 47.888 175.697 49.52C173.969 51.152 172.528 53.12 171.376 55.424C170.32 57.728 169.697 60.272 169.505 63.056H208.673Z"/>
<path d="M283.212 108.56C277.452 108.56 272.316 107.264 267.804 104.672C263.292 102.08 259.74 98.528 257.148 94.016V107.12H240.3V2H259.596V44.912C262.284 40.304 265.788 36.752 270.108 34.256C274.524 31.664 279.66 30.368 285.516 30.368C290.412 30.368 294.876 31.424 298.908 33.536C302.94 35.648 306.396 38.48 309.276 42.032C312.252 45.584 314.508 49.76 316.044 54.56C317.676 59.36 318.492 64.4 318.492 69.68C318.492 75.152 317.58 80.24 315.756 84.944C314.028 89.648 311.58 93.776 308.412 97.328C305.244 100.784 301.5 103.52 297.18 105.536C292.86 107.552 288.204 108.56 283.212 108.56ZM277.884 92.144C280.956 92.144 283.788 91.568 286.38 90.416C288.972 89.168 291.18 87.536 293.004 85.52C294.828 83.504 296.22 81.152 297.18 78.464C298.236 75.776 298.764 72.896 298.764 69.824C298.764 66.752 298.284 63.824 297.324 61.04C296.364 58.256 294.972 55.808 293.148 53.696C291.42 51.584 289.356 49.904 286.956 48.656C284.556 47.408 281.916 46.784 279.036 46.784C274.716 46.784 270.828 48.224 267.372 51.104C264.012 53.888 261.42 57.344 259.596 61.472V79.472C260.268 81.392 261.228 83.12 262.476 84.656C263.82 86.192 265.308 87.536 266.94 88.688C268.572 89.744 270.348 90.608 272.268 91.28C274.188 91.856 276.06 92.144 277.884 92.144Z"/>
<path d="M368.031 107.12V4.88H405.183C413.535 4.88 420.831 6.224 427.071 8.91199C433.407 11.6 438.687 15.248 442.911 19.856C447.135 24.464 450.303 29.888 452.415 36.128C454.527 42.272 455.583 48.848 455.583 55.856C455.583 63.632 454.383 70.688 451.983 77.024C449.679 83.264 446.319 88.64 441.903 93.152C437.487 97.568 432.159 101.024 425.919 103.52C419.775 105.92 412.863 107.12 405.183 107.12H368.031ZM435.567 55.856C435.567 50.96 434.895 46.448 433.551 42.32C432.207 38.192 430.239 34.64 427.647 31.664C425.055 28.688 421.839 26.384 417.999 24.752C414.255 23.12 409.983 22.304 405.183 22.304H387.903V89.696H405.183C410.079 89.696 414.399 88.832 418.143 87.104C421.983 85.376 425.151 83.024 427.647 80.048C430.239 76.976 432.207 73.376 433.551 69.248C434.895 65.12 435.567 60.656 435.567 55.856Z"/>
<path d="M504.229 108.56C498.181 108.56 492.709 107.552 487.813 105.536C482.917 103.424 478.741 100.592 475.285 97.04C471.829 93.488 469.141 89.36 467.221 84.656C465.397 79.952 464.485 75.008 464.485 69.824C464.485 64.448 465.397 59.408 467.221 54.704C469.045 49.904 471.685 45.728 475.141 42.176C478.597 38.528 482.773 35.648 487.669 33.536C492.661 31.424 498.229 30.368 504.373 30.368C510.517 30.368 515.989 31.424 520.789 33.536C525.685 35.648 529.813 38.48 533.173 42.032C536.629 45.584 539.221 49.712 540.949 54.416C542.773 59.12 543.685 64.016 543.685 69.104C543.685 70.352 543.637 71.552 543.541 72.704C543.541 73.856 543.445 74.816 543.253 75.584H484.933C485.221 78.56 485.941 81.2 487.093 83.504C488.245 85.808 489.733 87.776 491.557 89.408C493.381 91.04 495.445 92.288 497.749 93.152C500.053 94.016 502.453 94.448 504.949 94.448C508.789 94.448 512.389 93.536 515.749 91.712C519.205 89.792 521.557 87.296 522.805 84.224L539.365 88.832C536.581 94.592 532.117 99.344 525.973 103.088C519.925 106.736 512.677 108.56 504.229 108.56ZM523.813 63.056C523.333 57.392 521.221 52.88 517.477 49.52C513.829 46.064 509.365 44.336 504.085 44.336C501.493 44.336 499.045 44.816 496.741 45.776C494.533 46.64 492.565 47.888 490.837 49.52C489.109 51.152 487.669 53.12 486.517 55.424C485.461 57.728 484.837 60.272 484.645 63.056H523.813Z"/>
<path d="M583.952 108.56C577.616 108.56 571.424 107.552 565.376 105.536C559.328 103.52 554.144 100.64 549.824 96.896L557.024 84.8C561.632 88.064 566.096 90.56 570.416 92.288C574.832 93.92 579.2 94.736 583.52 94.736C587.36 94.736 590.384 94.016 592.592 92.576C594.8 91.136 595.904 89.072 595.904 86.384C595.904 83.696 594.608 81.728 592.016 80.48C589.424 79.232 585.2 77.792 579.344 76.16C574.448 74.816 570.272 73.52 566.816 72.272C563.36 71.024 560.576 69.632 558.464 68.096C556.352 66.464 554.816 64.64 553.856 62.624C552.896 60.512 552.416 58.016 552.416 55.136C552.416 51.296 553.136 47.84 554.576 44.768C556.112 41.696 558.224 39.104 560.912 36.992C563.6 34.784 566.72 33.104 570.272 31.952C573.92 30.8 577.856 30.224 582.08 30.224C587.744 30.224 593.024 31.04 597.92 32.672C602.912 34.304 607.472 36.944 611.6 40.592L603.824 52.256C599.984 49.376 596.24 47.264 592.592 45.92C589.04 44.576 585.488 43.904 581.936 43.904C578.672 43.904 575.936 44.576 573.728 45.92C571.52 47.264 570.416 49.424 570.416 52.4C570.416 53.744 570.656 54.848 571.136 55.712C571.712 56.576 572.576 57.344 573.728 58.016C574.88 58.688 576.368 59.36 578.192 60.032C580.112 60.608 582.464 61.232 585.248 61.904C590.432 63.248 594.848 64.592 598.496 65.936C602.24 67.28 605.264 68.816 607.568 70.544C609.968 72.272 611.696 74.288 612.752 76.592C613.904 78.8 614.48 81.488 614.48 84.656C614.48 92.048 611.744 97.904 606.272 102.224C600.8 106.448 593.36 108.56 583.952 108.56Z"/>
<path d="M627.018 107.12V31.664H646.314V107.12H627.018ZM627.018 21.152V2H646.314V21.152H627.018Z"/>
<path d="M693.242 107.552C688.154 107.552 683.545 106.544 679.417 104.528C675.289 102.512 671.689 99.776 668.617 96.32C665.641 92.768 663.338 88.688 661.706 84.08C660.074 79.472 659.258 74.576 659.258 69.392C659.258 63.92 660.121 58.832 661.849 54.128C663.577 49.424 665.977 45.296 669.049 41.744C672.122 38.192 675.818 35.408 680.138 33.392C684.458 31.376 689.209 30.368 694.393 30.368C700.249 30.368 705.386 31.712 709.802 34.4C714.218 36.992 717.865 40.496 720.745 44.912V31.664H737.594V103.52C737.594 109.088 736.538 114.08 734.426 118.496C732.314 122.912 729.385 126.656 725.641 129.728C721.993 132.8 717.577 135.152 712.393 136.784C707.305 138.416 701.738 139.232 695.69 139.232C687.434 139.232 680.474 137.84 674.81 135.056C669.242 132.368 664.441 128.528 660.409 123.536L670.922 113.312C673.802 116.864 677.401 119.648 681.721 121.664C686.137 123.68 690.794 124.688 695.69 124.688C698.666 124.688 701.497 124.256 704.185 123.392C706.969 122.624 709.417 121.376 711.529 119.648C713.641 117.92 715.273 115.712 716.425 113.024C717.673 110.336 718.297 107.168 718.297 103.52V94.016C715.801 98.336 712.298 101.696 707.786 104.096C703.274 106.4 698.426 107.552 693.242 107.552ZM699.721 92.144C701.833 92.144 703.85 91.808 705.77 91.136C707.69 90.464 709.465 89.552 711.097 88.4C712.729 87.248 714.169 85.904 715.417 84.368C716.665 82.832 717.625 81.2 718.297 79.472V61.472C716.569 57.056 713.833 53.504 710.089 50.816C706.441 48.128 702.602 46.784 698.57 46.784C695.594 46.784 692.905 47.456 690.505 48.8C688.105 50.048 686.041 51.776 684.313 53.984C682.585 56.096 681.241 58.544 680.281 61.328C679.417 64.112 678.985 66.992 678.985 69.968C678.985 73.04 679.514 75.92 680.57 78.608C681.626 81.296 683.066 83.648 684.89 85.664C686.81 87.68 689.017 89.264 691.513 90.416C694.009 91.568 696.745 92.144 699.721 92.144Z"/>
<path d="M825.115 107.12H805.819V64.784C805.819 58.736 804.763 54.32 802.651 51.536C800.539 48.752 797.611 47.36 793.867 47.36C791.947 47.36 789.979 47.744 787.963 48.512C785.947 49.28 784.027 50.384 782.203 51.824C780.475 53.168 778.891 54.8 777.451 56.72C776.011 58.64 774.955 60.752 774.283 63.056V107.12H754.987V31.664H772.411V45.632C775.195 40.832 779.227 37.088 784.507 34.4C789.787 31.712 795.739 30.368 802.363 30.368C807.067 30.368 810.907 31.232 813.883 32.96C816.859 34.688 819.163 36.944 820.795 39.728C822.427 42.512 823.531 45.68 824.107 49.232C824.779 52.784 825.115 56.384 825.115 60.032V107.12Z"/>
</mask>
<path d="M48.936 5.168H67.224L78.744 39.008L90.264 5.168H108.696L91.272 51.68L104.232 84.368L133.176 4.88H154.776L113.16 107.12H96.456L78.744 64.208L61.032 107.12H44.328L3 4.88H24.312L53.4 84.368L66.072 51.68L48.936 5.168Z" stroke="white" stroke-width="4" mask="url(#path-1-outside-1)"/>
<path d="M189.089 108.56C183.041 108.56 177.569 107.552 172.673 105.536C167.777 103.424 163.601 100.592 160.145 97.04C156.689 93.488 154.001 89.36 152.081 84.656C150.257 79.952 149.344 75.008 149.344 69.824C149.344 64.448 150.257 59.408 152.081 54.704C153.905 49.904 156.545 45.728 160.001 42.176C163.457 38.528 167.633 35.648 172.529 33.536C177.521 31.424 183.088 30.368 189.232 30.368C195.376 30.368 200.848 31.424 205.648 33.536C210.544 35.648 214.673 38.48 218.033 42.032C221.489 45.584 224.081 49.712 225.809 54.416C227.633 59.12 228.544 64.016 228.544 69.104C228.544 70.352 228.496 71.552 228.4 72.704C228.4 73.856 228.305 74.816 228.113 75.584H169.792C170.08 78.56 170.8 81.2 171.952 83.504C173.105 85.808 174.593 87.776 176.417 89.408C178.241 91.04 180.305 92.288 182.609 93.152C184.913 94.016 187.313 94.448 189.809 94.448C193.649 94.448 197.249 93.536 200.609 91.712C204.065 89.792 206.417 87.296 207.665 84.224L224.225 88.832C221.441 94.592 216.977 99.344 210.833 103.088C204.785 106.736 197.537 108.56 189.089 108.56ZM208.673 63.056C208.193 57.392 206.081 52.88 202.337 49.52C198.689 46.064 194.225 44.336 188.945 44.336C186.353 44.336 183.904 44.816 181.6 45.776C179.392 46.64 177.425 47.888 175.697 49.52C173.969 51.152 172.528 53.12 171.376 55.424C170.32 57.728 169.697 60.272 169.505 63.056H208.673Z" stroke="white" stroke-width="4" mask="url(#path-1-outside-1)"/>
<path d="M283.212 108.56C277.452 108.56 272.316 107.264 267.804 104.672C263.292 102.08 259.74 98.528 257.148 94.016V107.12H240.3V2H259.596V44.912C262.284 40.304 265.788 36.752 270.108 34.256C274.524 31.664 279.66 30.368 285.516 30.368C290.412 30.368 294.876 31.424 298.908 33.536C302.94 35.648 306.396 38.48 309.276 42.032C312.252 45.584 314.508 49.76 316.044 54.56C317.676 59.36 318.492 64.4 318.492 69.68C318.492 75.152 317.58 80.24 315.756 84.944C314.028 89.648 311.58 93.776 308.412 97.328C305.244 100.784 301.5 103.52 297.18 105.536C292.86 107.552 288.204 108.56 283.212 108.56ZM277.884 92.144C280.956 92.144 283.788 91.568 286.38 90.416C288.972 89.168 291.18 87.536 293.004 85.52C294.828 83.504 296.22 81.152 297.18 78.464C298.236 75.776 298.764 72.896 298.764 69.824C298.764 66.752 298.284 63.824 297.324 61.04C296.364 58.256 294.972 55.808 293.148 53.696C291.42 51.584 289.356 49.904 286.956 48.656C284.556 47.408 281.916 46.784 279.036 46.784C274.716 46.784 270.828 48.224 267.372 51.104C264.012 53.888 261.42 57.344 259.596 61.472V79.472C260.268 81.392 261.228 83.12 262.476 84.656C263.82 86.192 265.308 87.536 266.94 88.688C268.572 89.744 270.348 90.608 272.268 91.28C274.188 91.856 276.06 92.144 277.884 92.144Z" stroke="white" stroke-width="4" mask="url(#path-1-outside-1)"/>
<path d="M368.031 107.12V4.88H405.183C413.535 4.88 420.831 6.224 427.071 8.91199C433.407 11.6 438.687 15.248 442.911 19.856C447.135 24.464 450.303 29.888 452.415 36.128C454.527 42.272 455.583 48.848 455.583 55.856C455.583 63.632 454.383 70.688 451.983 77.024C449.679 83.264 446.319 88.64 441.903 93.152C437.487 97.568 432.159 101.024 425.919 103.52C419.775 105.92 412.863 107.12 405.183 107.12H368.031ZM435.567 55.856C435.567 50.96 434.895 46.448 433.551 42.32C432.207 38.192 430.239 34.64 427.647 31.664C425.055 28.688 421.839 26.384 417.999 24.752C414.255 23.12 409.983 22.304 405.183 22.304H387.903V89.696H405.183C410.079 89.696 414.399 88.832 418.143 87.104C421.983 85.376 425.151 83.024 427.647 80.048C430.239 76.976 432.207 73.376 433.551 69.248C434.895 65.12 435.567 60.656 435.567 55.856Z" stroke="white" stroke-width="4" mask="url(#path-1-outside-1)"/>
<path d="M504.229 108.56C498.181 108.56 492.709 107.552 487.813 105.536C482.917 103.424 478.741 100.592 475.285 97.04C471.829 93.488 469.141 89.36 467.221 84.656C465.397 79.952 464.485 75.008 464.485 69.824C464.485 64.448 465.397 59.408 467.221 54.704C469.045 49.904 471.685 45.728 475.141 42.176C478.597 38.528 482.773 35.648 487.669 33.536C492.661 31.424 498.229 30.368 504.373 30.368C510.517 30.368 515.989 31.424 520.789 33.536C525.685 35.648 529.813 38.48 533.173 42.032C536.629 45.584 539.221 49.712 540.949 54.416C542.773 59.12 543.685 64.016 543.685 69.104C543.685 70.352 543.637 71.552 543.541 72.704C543.541 73.856 543.445 74.816 543.253 75.584H484.933C485.221 78.56 485.941 81.2 487.093 83.504C488.245 85.808 489.733 87.776 491.557 89.408C493.381 91.04 495.445 92.288 497.749 93.152C500.053 94.016 502.453 94.448 504.949 94.448C508.789 94.448 512.389 93.536 515.749 91.712C519.205 89.792 521.557 87.296 522.805 84.224L539.365 88.832C536.581 94.592 532.117 99.344 525.973 103.088C519.925 106.736 512.677 108.56 504.229 108.56ZM523.813 63.056C523.333 57.392 521.221 52.88 517.477 49.52C513.829 46.064 509.365 44.336 504.085 44.336C501.493 44.336 499.045 44.816 496.741 45.776C494.533 46.64 492.565 47.888 490.837 49.52C489.109 51.152 487.669 53.12 486.517 55.424C485.461 57.728 484.837 60.272 484.645 63.056H523.813Z" stroke="white" stroke-width="4" mask="url(#path-1-outside-1)"/>
<path d="M583.952 108.56C577.616 108.56 571.424 107.552 565.376 105.536C559.328 103.52 554.144 100.64 549.824 96.896L557.024 84.8C561.632 88.064 566.096 90.56 570.416 92.288C574.832 93.92 579.2 94.736 583.52 94.736C587.36 94.736 590.384 94.016 592.592 92.576C594.8 91.136 595.904 89.072 595.904 86.384C595.904 83.696 594.608 81.728 592.016 80.48C589.424 79.232 585.2 77.792 579.344 76.16C574.448 74.816 570.272 73.52 566.816 72.272C563.36 71.024 560.576 69.632 558.464 68.096C556.352 66.464 554.816 64.64 553.856 62.624C552.896 60.512 552.416 58.016 552.416 55.136C552.416 51.296 553.136 47.84 554.576 44.768C556.112 41.696 558.224 39.104 560.912 36.992C563.6 34.784 566.72 33.104 570.272 31.952C573.92 30.8 577.856 30.224 582.08 30.224C587.744 30.224 593.024 31.04 597.92 32.672C602.912 34.304 607.472 36.944 611.6 40.592L603.824 52.256C599.984 49.376 596.24 47.264 592.592 45.92C589.04 44.576 585.488 43.904 581.936 43.904C578.672 43.904 575.936 44.576 573.728 45.92C571.52 47.264 570.416 49.424 570.416 52.4C570.416 53.744 570.656 54.848 571.136 55.712C571.712 56.576 572.576 57.344 573.728 58.016C574.88 58.688 576.368 59.36 578.192 60.032C580.112 60.608 582.464 61.232 585.248 61.904C590.432 63.248 594.848 64.592 598.496 65.936C602.24 67.28 605.264 68.816 607.568 70.544C609.968 72.272 611.696 74.288 612.752 76.592C613.904 78.8 614.48 81.488 614.48 84.656C614.48 92.048 611.744 97.904 606.272 102.224C600.8 106.448 593.36 108.56 583.952 108.56Z" stroke="white" stroke-width="4" mask="url(#path-1-outside-1)"/>
<path d="M627.018 107.12V31.664H646.314V107.12H627.018ZM627.018 21.152V2H646.314V21.152H627.018Z" stroke="white" stroke-width="4" mask="url(#path-1-outside-1)"/>
<path d="M693.242 107.552C688.154 107.552 683.545 106.544 679.417 104.528C675.289 102.512 671.689 99.776 668.617 96.32C665.641 92.768 663.338 88.688 661.706 84.08C660.074 79.472 659.258 74.576 659.258 69.392C659.258 63.92 660.121 58.832 661.849 54.128C663.577 49.424 665.977 45.296 669.049 41.744C672.122 38.192 675.818 35.408 680.138 33.392C684.458 31.376 689.209 30.368 694.393 30.368C700.249 30.368 705.386 31.712 709.802 34.4C714.218 36.992 717.865 40.496 720.745 44.912V31.664H737.594V103.52C737.594 109.088 736.538 114.08 734.426 118.496C732.314 122.912 729.385 126.656 725.641 129.728C721.993 132.8 717.577 135.152 712.393 136.784C707.305 138.416 701.738 139.232 695.69 139.232C687.434 139.232 680.474 137.84 674.81 135.056C669.242 132.368 664.441 128.528 660.409 123.536L670.922 113.312C673.802 116.864 677.401 119.648 681.721 121.664C686.137 123.68 690.794 124.688 695.69 124.688C698.666 124.688 701.497 124.256 704.185 123.392C706.969 122.624 709.417 121.376 711.529 119.648C713.641 117.92 715.273 115.712 716.425 113.024C717.673 110.336 718.297 107.168 718.297 103.52V94.016C715.801 98.336 712.298 101.696 707.786 104.096C703.274 106.4 698.426 107.552 693.242 107.552ZM699.721 92.144C701.833 92.144 703.85 91.808 705.77 91.136C707.69 90.464 709.465 89.552 711.097 88.4C712.729 87.248 714.169 85.904 715.417 84.368C716.665 82.832 717.625 81.2 718.297 79.472V61.472C716.569 57.056 713.833 53.504 710.089 50.816C706.441 48.128 702.602 46.784 698.57 46.784C695.594 46.784 692.905 47.456 690.505 48.8C688.105 50.048 686.041 51.776 684.313 53.984C682.585 56.096 681.241 58.544 680.281 61.328C679.417 64.112 678.985 66.992 678.985 69.968C678.985 73.04 679.514 75.92 680.57 78.608C681.626 81.296 683.066 83.648 684.89 85.664C686.81 87.68 689.017 89.264 691.513 90.416C694.009 91.568 696.745 92.144 699.721 92.144Z" stroke="white" stroke-width="4" mask="url(#path-1-outside-1)"/>
<path d="M825.115 107.12H805.819V64.784C805.819 58.736 804.763 54.32 802.651 51.536C800.539 48.752 797.611 47.36 793.867 47.36C791.947 47.36 789.979 47.744 787.963 48.512C785.947 49.28 784.027 50.384 782.203 51.824C780.475 53.168 778.891 54.8 777.451 56.72C776.011 58.64 774.955 60.752 774.283 63.056V107.12H754.987V31.664H772.411V45.632C775.195 40.832 779.227 37.088 784.507 34.4C789.787 31.712 795.739 30.368 802.363 30.368C807.067 30.368 810.907 31.232 813.883 32.96C816.859 34.688 819.163 36.944 820.795 39.728C822.427 42.512 823.531 45.68 824.107 49.232C824.779 52.784 825.115 56.384 825.115 60.032V107.12Z" stroke="white" stroke-width="4" mask="url(#path-1-outside-1)"/>
</svg>
