<svg width="462" height="143" viewBox="0 0 462 143" fill="none" xmlns="http://www.w3.org/2000/svg">
<mask id="path-1-outside-1" maskUnits="userSpaceOnUse" x="0.656006" y="0.880005" width="462" height="142" fill="black">
<rect fill="white" x="0.656006" y="0.880005" width="462" height="142"/>
<path d="M2.65601 108V5.76H39.808C48.16 5.76 55.456 7.104 61.696 9.792C68.032 12.48 73.312 16.128 77.536 20.736C81.76 25.344 84.928 30.768 87.04 37.008C89.152 43.152 90.208 49.728 90.208 56.736C90.208 64.512 89.008 71.568 86.608 77.904C84.304 84.144 80.944 89.52 76.528 94.032C72.112 98.448 66.784 101.904 60.544 104.4C54.4 106.8 47.488 108 39.808 108H2.65601ZM70.192 56.736C70.192 51.84 69.52 47.328 68.176 43.2C66.832 39.072 64.864 35.52 62.272 32.544C59.68 29.568 56.464 27.264 52.624 25.632C48.88 24 44.608 23.184 39.808 23.184H22.528V90.576H39.808C44.704 90.576 49.024 89.712 52.768 87.984C56.608 86.256 59.776 83.904 62.272 80.928C64.864 77.856 66.832 74.256 68.176 70.128C69.52 66 70.192 61.536 70.192 56.736Z"/>
<path d="M138.854 109.44C132.806 109.44 127.334 108.432 122.438 106.416C117.542 104.304 113.366 101.472 109.91 97.92C106.454 94.368 103.766 90.24 101.846 85.536C100.022 80.832 99.1101 75.888 99.1101 70.704C99.1101 65.328 100.022 60.288 101.846 55.584C103.67 50.784 106.31 46.608 109.766 43.056C113.222 39.408 117.398 36.528 122.294 34.416C127.286 32.304 132.854 31.248 138.998 31.248C145.142 31.248 150.614 32.304 155.414 34.416C160.31 36.528 164.438 39.36 167.798 42.912C171.254 46.464 173.846 50.592 175.574 55.296C177.398 60 178.31 64.896 178.31 69.984C178.31 71.232 178.262 72.432 178.166 73.584C178.166 74.736 178.07 75.696 177.878 76.464H119.558C119.846 79.44 120.566 82.08 121.718 84.384C122.87 86.688 124.358 88.656 126.182 90.288C128.006 91.92 130.07 93.168 132.374 94.032C134.678 94.896 137.078 95.328 139.574 95.328C143.414 95.328 147.014 94.416 150.374 92.592C153.83 90.672 156.182 88.176 157.43 85.104L173.99 89.712C171.206 95.472 166.742 100.224 160.598 103.968C154.55 107.616 147.302 109.44 138.854 109.44ZM158.438 63.936C157.958 58.272 155.846 53.76 152.102 50.4C148.454 46.944 143.99 45.216 138.71 45.216C136.118 45.216 133.67 45.696 131.366 46.656C129.158 47.52 127.19 48.768 125.462 50.4C123.734 52.032 122.294 54 121.142 56.304C120.086 58.608 119.462 61.152 119.27 63.936H158.438Z"/>
<path d="M218.577 109.44C212.241 109.44 206.049 108.432 200.001 106.416C193.953 104.4 188.769 101.52 184.449 97.776L191.649 85.68C196.257 88.944 200.721 91.44 205.041 93.168C209.457 94.8 213.825 95.616 218.145 95.616C221.985 95.616 225.009 94.896 227.217 93.456C229.425 92.016 230.529 89.952 230.529 87.264C230.529 84.576 229.233 82.608 226.641 81.36C224.049 80.112 219.825 78.672 213.969 77.04C209.073 75.696 204.897 74.4 201.441 73.152C197.985 71.904 195.201 70.512 193.089 68.976C190.977 67.344 189.441 65.52 188.481 63.504C187.521 61.392 187.041 58.896 187.041 56.016C187.041 52.176 187.761 48.72 189.201 45.648C190.737 42.576 192.849 39.984 195.537 37.872C198.225 35.664 201.345 33.984 204.897 32.832C208.545 31.68 212.481 31.104 216.705 31.104C222.369 31.104 227.649 31.92 232.545 33.552C237.537 35.184 242.097 37.824 246.225 41.472L238.449 53.136C234.609 50.256 230.865 48.144 227.217 46.8C223.665 45.456 220.113 44.784 216.561 44.784C213.297 44.784 210.561 45.456 208.353 46.8C206.145 48.144 205.041 50.304 205.041 53.28C205.041 54.624 205.281 55.728 205.761 56.592C206.337 57.456 207.201 58.224 208.353 58.896C209.505 59.568 210.993 60.24 212.817 60.912C214.737 61.488 217.089 62.112 219.873 62.784C225.057 64.128 229.473 65.472 233.121 66.816C236.865 68.16 239.889 69.696 242.193 71.424C244.593 73.152 246.321 75.168 247.377 77.472C248.529 79.68 249.105 82.368 249.105 85.536C249.105 92.928 246.369 98.784 240.897 103.104C235.425 107.328 227.985 109.44 218.577 109.44Z"/>
<path d="M261.643 108V32.544H280.939V108H261.643ZM261.643 22.032V2.88H280.939V22.032H261.643Z"/>
<path d="M327.866 108.432C322.778 108.432 318.171 107.424 314.043 105.408C309.915 103.392 306.314 100.656 303.242 97.2C300.266 93.648 297.963 89.568 296.331 84.96C294.699 80.352 293.883 75.456 293.883 70.272C293.883 64.8 294.746 59.712 296.474 55.008C298.202 50.304 300.602 46.176 303.674 42.624C306.747 39.072 310.443 36.288 314.763 34.272C319.083 32.256 323.834 31.248 329.018 31.248C334.874 31.248 340.011 32.592 344.427 35.28C348.843 37.872 352.491 41.376 355.371 45.792V32.544H372.219V104.4C372.219 109.968 371.163 114.96 369.051 119.376C366.939 123.792 364.011 127.536 360.267 130.608C356.619 133.68 352.202 136.032 347.018 137.664C341.93 139.296 336.363 140.112 330.315 140.112C322.059 140.112 315.099 138.72 309.435 135.936C303.867 133.248 299.067 129.408 295.035 124.416L305.547 114.192C308.427 117.744 312.026 120.528 316.346 122.544C320.762 124.56 325.419 125.568 330.315 125.568C333.291 125.568 336.122 125.136 338.81 124.272C341.594 123.504 344.043 122.256 346.155 120.528C348.267 118.8 349.899 116.592 351.051 113.904C352.299 111.216 352.923 108.048 352.923 104.4V94.896C350.427 99.216 346.922 102.576 342.41 104.976C337.898 107.28 333.05 108.432 327.866 108.432ZM334.346 93.024C336.458 93.024 338.474 92.688 340.395 92.016C342.315 91.344 344.091 90.432 345.723 89.28C347.355 88.128 348.795 86.784 350.043 85.248C351.291 83.712 352.251 82.08 352.923 80.352V62.352C351.195 57.936 348.459 54.384 344.715 51.696C341.067 49.008 337.226 47.664 333.194 47.664C330.218 47.664 327.53 48.336 325.13 49.68C322.73 50.928 320.667 52.656 318.939 54.864C317.211 56.976 315.866 59.424 314.906 62.208C314.042 64.992 313.611 67.872 313.611 70.848C313.611 73.92 314.138 76.8 315.194 79.488C316.25 82.176 317.69 84.528 319.514 86.544C321.434 88.56 323.642 90.144 326.138 91.296C328.634 92.448 331.37 93.024 334.346 93.024Z"/>
<path d="M459.74 108H440.444V65.664C440.444 59.616 439.388 55.2 437.276 52.416C435.164 49.632 432.236 48.24 428.492 48.24C426.572 48.24 424.604 48.624 422.588 49.392C420.572 50.16 418.652 51.264 416.828 52.704C415.1 54.048 413.516 55.68 412.076 57.6C410.636 59.52 409.58 61.632 408.908 63.936V108H389.612V32.544H407.036V46.512C409.82 41.712 413.852 37.968 419.132 35.28C424.412 32.592 430.364 31.248 436.988 31.248C441.692 31.248 445.532 32.112 448.508 33.84C451.484 35.568 453.788 37.824 455.42 40.608C457.052 43.392 458.156 46.56 458.732 50.112C459.404 53.664 459.74 57.264 459.74 60.912V108Z"/>
</mask>
<path d="M2.65601 108V5.76H39.808C48.16 5.76 55.456 7.104 61.696 9.792C68.032 12.48 73.312 16.128 77.536 20.736C81.76 25.344 84.928 30.768 87.04 37.008C89.152 43.152 90.208 49.728 90.208 56.736C90.208 64.512 89.008 71.568 86.608 77.904C84.304 84.144 80.944 89.52 76.528 94.032C72.112 98.448 66.784 101.904 60.544 104.4C54.4 106.8 47.488 108 39.808 108H2.65601ZM70.192 56.736C70.192 51.84 69.52 47.328 68.176 43.2C66.832 39.072 64.864 35.52 62.272 32.544C59.68 29.568 56.464 27.264 52.624 25.632C48.88 24 44.608 23.184 39.808 23.184H22.528V90.576H39.808C44.704 90.576 49.024 89.712 52.768 87.984C56.608 86.256 59.776 83.904 62.272 80.928C64.864 77.856 66.832 74.256 68.176 70.128C69.52 66 70.192 61.536 70.192 56.736Z" stroke="white" stroke-width="4" mask="url(#path-1-outside-1)"/>
<path d="M138.854 109.44C132.806 109.44 127.334 108.432 122.438 106.416C117.542 104.304 113.366 101.472 109.91 97.92C106.454 94.368 103.766 90.24 101.846 85.536C100.022 80.832 99.1101 75.888 99.1101 70.704C99.1101 65.328 100.022 60.288 101.846 55.584C103.67 50.784 106.31 46.608 109.766 43.056C113.222 39.408 117.398 36.528 122.294 34.416C127.286 32.304 132.854 31.248 138.998 31.248C145.142 31.248 150.614 32.304 155.414 34.416C160.31 36.528 164.438 39.36 167.798 42.912C171.254 46.464 173.846 50.592 175.574 55.296C177.398 60 178.31 64.896 178.31 69.984C178.31 71.232 178.262 72.432 178.166 73.584C178.166 74.736 178.07 75.696 177.878 76.464H119.558C119.846 79.44 120.566 82.08 121.718 84.384C122.87 86.688 124.358 88.656 126.182 90.288C128.006 91.92 130.07 93.168 132.374 94.032C134.678 94.896 137.078 95.328 139.574 95.328C143.414 95.328 147.014 94.416 150.374 92.592C153.83 90.672 156.182 88.176 157.43 85.104L173.99 89.712C171.206 95.472 166.742 100.224 160.598 103.968C154.55 107.616 147.302 109.44 138.854 109.44ZM158.438 63.936C157.958 58.272 155.846 53.76 152.102 50.4C148.454 46.944 143.99 45.216 138.71 45.216C136.118 45.216 133.67 45.696 131.366 46.656C129.158 47.52 127.19 48.768 125.462 50.4C123.734 52.032 122.294 54 121.142 56.304C120.086 58.608 119.462 61.152 119.27 63.936H158.438Z" stroke="white" stroke-width="4" mask="url(#path-1-outside-1)"/>
<path d="M218.577 109.44C212.241 109.44 206.049 108.432 200.001 106.416C193.953 104.4 188.769 101.52 184.449 97.776L191.649 85.68C196.257 88.944 200.721 91.44 205.041 93.168C209.457 94.8 213.825 95.616 218.145 95.616C221.985 95.616 225.009 94.896 227.217 93.456C229.425 92.016 230.529 89.952 230.529 87.264C230.529 84.576 229.233 82.608 226.641 81.36C224.049 80.112 219.825 78.672 213.969 77.04C209.073 75.696 204.897 74.4 201.441 73.152C197.985 71.904 195.201 70.512 193.089 68.976C190.977 67.344 189.441 65.52 188.481 63.504C187.521 61.392 187.041 58.896 187.041 56.016C187.041 52.176 187.761 48.72 189.201 45.648C190.737 42.576 192.849 39.984 195.537 37.872C198.225 35.664 201.345 33.984 204.897 32.832C208.545 31.68 212.481 31.104 216.705 31.104C222.369 31.104 227.649 31.92 232.545 33.552C237.537 35.184 242.097 37.824 246.225 41.472L238.449 53.136C234.609 50.256 230.865 48.144 227.217 46.8C223.665 45.456 220.113 44.784 216.561 44.784C213.297 44.784 210.561 45.456 208.353 46.8C206.145 48.144 205.041 50.304 205.041 53.28C205.041 54.624 205.281 55.728 205.761 56.592C206.337 57.456 207.201 58.224 208.353 58.896C209.505 59.568 210.993 60.24 212.817 60.912C214.737 61.488 217.089 62.112 219.873 62.784C225.057 64.128 229.473 65.472 233.121 66.816C236.865 68.16 239.889 69.696 242.193 71.424C244.593 73.152 246.321 75.168 247.377 77.472C248.529 79.68 249.105 82.368 249.105 85.536C249.105 92.928 246.369 98.784 240.897 103.104C235.425 107.328 227.985 109.44 218.577 109.44Z" stroke="white" stroke-width="4" mask="url(#path-1-outside-1)"/>
<path d="M261.643 108V32.544H280.939V108H261.643ZM261.643 22.032V2.88H280.939V22.032H261.643Z" stroke="white" stroke-width="4" mask="url(#path-1-outside-1)"/>
<path d="M327.866 108.432C322.778 108.432 318.171 107.424 314.043 105.408C309.915 103.392 306.314 100.656 303.242 97.2C300.266 93.648 297.963 89.568 296.331 84.96C294.699 80.352 293.883 75.456 293.883 70.272C293.883 64.8 294.746 59.712 296.474 55.008C298.202 50.304 300.602 46.176 303.674 42.624C306.747 39.072 310.443 36.288 314.763 34.272C319.083 32.256 323.834 31.248 329.018 31.248C334.874 31.248 340.011 32.592 344.427 35.28C348.843 37.872 352.491 41.376 355.371 45.792V32.544H372.219V104.4C372.219 109.968 371.163 114.96 369.051 119.376C366.939 123.792 364.011 127.536 360.267 130.608C356.619 133.68 352.202 136.032 347.018 137.664C341.93 139.296 336.363 140.112 330.315 140.112C322.059 140.112 315.099 138.72 309.435 135.936C303.867 133.248 299.067 129.408 295.035 124.416L305.547 114.192C308.427 117.744 312.026 120.528 316.346 122.544C320.762 124.56 325.419 125.568 330.315 125.568C333.291 125.568 336.122 125.136 338.81 124.272C341.594 123.504 344.043 122.256 346.155 120.528C348.267 118.8 349.899 116.592 351.051 113.904C352.299 111.216 352.923 108.048 352.923 104.4V94.896C350.427 99.216 346.922 102.576 342.41 104.976C337.898 107.28 333.05 108.432 327.866 108.432ZM334.346 93.024C336.458 93.024 338.474 92.688 340.395 92.016C342.315 91.344 344.091 90.432 345.723 89.28C347.355 88.128 348.795 86.784 350.043 85.248C351.291 83.712 352.251 82.08 352.923 80.352V62.352C351.195 57.936 348.459 54.384 344.715 51.696C341.067 49.008 337.226 47.664 333.194 47.664C330.218 47.664 327.53 48.336 325.13 49.68C322.73 50.928 320.667 52.656 318.939 54.864C317.211 56.976 315.866 59.424 314.906 62.208C314.042 64.992 313.611 67.872 313.611 70.848C313.611 73.92 314.138 76.8 315.194 79.488C316.25 82.176 317.69 84.528 319.514 86.544C321.434 88.56 323.642 90.144 326.138 91.296C328.634 92.448 331.37 93.024 334.346 93.024Z" stroke="white" stroke-width="4" mask="url(#path-1-outside-1)"/>
<path d="M459.74 108H440.444V65.664C440.444 59.616 439.388 55.2 437.276 52.416C435.164 49.632 432.236 48.24 428.492 48.24C426.572 48.24 424.604 48.624 422.588 49.392C420.572 50.16 418.652 51.264 416.828 52.704C415.1 54.048 413.516 55.68 412.076 57.6C410.636 59.52 409.58 61.632 408.908 63.936V108H389.612V32.544H407.036V46.512C409.82 41.712 413.852 37.968 419.132 35.28C424.412 32.592 430.364 31.248 436.988 31.248C441.692 31.248 445.532 32.112 448.508 33.84C451.484 35.568 453.788 37.824 455.42 40.608C457.052 43.392 458.156 46.56 458.732 50.112C459.404 53.664 459.74 57.264 459.74 60.912V108Z" stroke="white" stroke-width="4" mask="url(#path-1-outside-1)"/>
</svg>
