<svg fill="none" height="143" viewBox="0 0 1120 143" width="1120" xmlns="http://www.w3.org/2000/svg" xmlns:xlink="http://www.w3.org/1999/xlink"><mask id="a" fill="#000" height="143" maskUnits="userSpaceOnUse" width="1119" x=".783997" y=".880005"><path d="m.783997.880005h1119v143h-1119z" fill="#fff"/><path d="m48 109.44c-5.952 0-11.136-1.296-15.552-3.888-4.416-2.688-7.872-6.288-10.368-10.8v43.92h-19.296v-106.128h16.848v12.96c2.784-4.416 6.384-7.872 10.8-10.368 4.416-2.592 9.504-3.888 15.264-3.888 5.088 0 9.792 1.056 14.112 3.168 4.32 2.016 8.016 4.8 11.088 8.352 3.168 3.456 5.616 7.584 7.344 12.384 1.824 4.704 2.736 9.696 2.736 14.976 0 5.472-.816 10.608-2.448 15.408s-3.936 8.976-6.912 12.528c-2.88 3.552-6.336 6.336-10.368 8.352s-8.448 3.024-13.248 3.024zm-6.48-16.416c2.88 0 5.52-.624 7.92-1.872 2.496-1.248 4.608-2.928 6.336-5.04s3.072-4.56 4.032-7.344 1.44-5.664 1.44-8.64c0-3.168-.528-6.096-1.584-8.784-1.056-2.784-2.544-5.184-4.464-7.2-1.824-2.016-4.032-3.6-6.624-4.752-2.496-1.152-5.232-1.728-8.208-1.728-1.824 0-3.696.336-5.616 1.008-1.92.576-3.696 1.44-5.328 2.592s-3.12 2.496-4.464 4.032c-1.248 1.536-2.208 3.216-2.88 5.04v17.712c1.728 4.32 4.368 7.92 7.92 10.8 3.552 2.784 7.392 4.176 11.52 4.176z" fill="#000"/><path d="m138.978 49.248c-5.856.096-11.088 1.248-15.696 3.456-4.608 2.112-7.92 5.328-9.936 9.648v45.648h-19.2964v-75.456h17.7124v16.128c1.344-2.592 2.928-4.896 4.752-6.912 1.824-2.112 3.792-3.936 5.904-5.472s4.224-2.688 6.336-3.456c2.208-.864 4.32-1.296 6.336-1.296h2.304c.576 0 1.104.048 1.584.144z" fill="#000"/><path d="m149.737 108v-75.456h19.296v75.456zm0-85.968v-19.152h19.296v19.152z" fill="#000"/><path d="m303.656 108h-19.296v-42.336c0-6.048-1.056-10.464-3.168-13.248-2.016-2.784-4.848-4.176-8.496-4.176-3.84 0-7.44 1.488-10.8 4.464-3.36 2.88-5.76 6.672-7.2 11.376v43.92h-19.296v-42.336c0-6.048-1.056-10.464-3.168-13.248-2.016-2.784-4.848-4.176-8.496-4.176-3.744 0-7.344 1.44-10.8 4.32-3.36 2.88-5.76 6.672-7.2 11.376v44.064h-19.296v-75.456h17.424v13.968c2.784-4.896 6.576-8.64 11.376-11.232 4.896-2.688 10.464-4.032 16.704-4.032 6.336 0 11.232 1.536 14.688 4.608s5.664 6.864 6.624 11.376c3.072-5.184 6.96-9.12 11.664-11.808 4.704-2.784 10.08-4.176 16.128-4.176 4.608 0 8.4.864 11.376 2.592s5.28 3.984 6.912 6.768 2.736 5.952 3.312 9.504c.672 3.552 1.008 7.152 1.008 10.8z" fill="#000"/><path d="m341.048 109.44c-3.648 0-7.056-.576-10.224-1.728-3.168-1.248-5.904-2.928-8.208-5.04-2.304-2.208-4.128-4.752-5.472-7.632-1.248-2.88-1.872-6.048-1.872-9.504 0-3.552.768-6.816 2.304-9.792 1.632-3.072 3.84-5.664 6.624-7.776 2.88-2.112 6.288-3.744 10.224-4.896 3.936-1.248 8.256-1.872 12.96-1.872 3.36 0 6.624.288 9.792.864 3.264.576 6.144 1.392 8.64 2.448v-4.32c0-4.992-1.44-8.832-4.32-11.52-2.784-2.688-6.96-4.032-12.528-4.032-4.032 0-7.968.72-11.808 2.16s-7.776 3.552-11.808 6.336l-5.904-12.24c9.696-6.432 20.16-9.648 31.392-9.648 10.848 0 19.248 2.688 25.2 8.064 6.048 5.28 9.072 12.96 9.072 23.04v23.472c0 2.016.336 3.456 1.008 4.32.768.864 1.968 1.344 3.6 1.44v16.416c-3.264.672-6.096 1.008-8.496 1.008-3.648 0-6.48-.816-8.496-2.448-1.92-1.632-3.12-3.792-3.6-6.48l-.432-4.176c-3.36 4.416-7.44 7.776-12.24 10.08s-9.936 3.456-15.408 3.456zm5.472-14.112c3.264 0 6.336-.576 9.216-1.728 2.976-1.152 5.28-2.688 6.912-4.608 2.112-1.632 3.168-3.456 3.168-5.472v-8.64c-2.304-.864-4.8-1.536-7.488-2.016-2.688-.576-5.28-.864-7.776-.864-4.992 0-9.072 1.152-12.24 3.456-3.168 2.208-4.752 5.04-4.752 8.496 0 3.264 1.248 6 3.744 8.208 2.496 2.112 5.568 3.168 9.216 3.168z" fill="#000"/><path d="m402.999 2.88h19.296v80.928c0 2.784.672 4.944 2.016 6.48s3.264 2.304 5.76 2.304c1.152 0 2.4-.192 3.744-.576 1.44-.384 2.784-.864 4.032-1.44l2.592 14.688c-2.592 1.248-5.616 2.208-9.072 2.88s-6.576 1.008-9.36 1.008c-6.048 0-10.752-1.584-14.112-4.752-3.264-3.264-4.896-7.872-4.896-13.824z" fill="#000"/><path d="m521.852 109.44c-5.76 0-10.896-1.296-15.408-3.888s-8.064-6.144-10.656-10.656v13.104h-16.848v-105.12h19.296v42.912c2.688-4.608 6.192-8.16 10.512-10.656 4.416-2.592 9.552-3.888 15.408-3.888 4.896 0 9.36 1.056 13.392 3.168s7.488 4.944 10.368 8.496c2.976 3.552 5.232 7.728 6.768 12.528 1.632 4.8 2.448 9.84 2.448 15.12 0 5.472-.912 10.56-2.736 15.264-1.728 4.704-4.176 8.832-7.344 12.384-3.168 3.456-6.912 6.192-11.232 8.208s-8.976 3.024-13.968 3.024zm-5.328-16.416c3.072 0 5.904-.576 8.496-1.728 2.592-1.248 4.8-2.88 6.624-4.896s3.216-4.368 4.176-7.056c1.056-2.688 1.584-5.568 1.584-8.64s-.48-6-1.44-8.784-2.352-5.232-4.176-7.344c-1.728-2.112-3.792-3.792-6.192-5.04s-5.04-1.872-7.92-1.872c-4.32 0-8.208 1.44-11.664 4.32-3.36 2.784-5.952 6.24-7.776 10.368v18c.672 1.92 1.632 3.648 2.88 5.184 1.344 1.536 2.832 2.88 4.464 4.032 1.632 1.056 3.408 1.92 5.328 2.592 1.92.576 3.792.864 5.616.864z" fill="#000"/><path d="m605.054 109.44c-6.144 0-11.664-1.056-16.56-3.168s-9.072-4.944-12.528-8.496c-3.36-3.648-5.952-7.824-7.776-12.528s-2.736-9.648-2.736-14.832c0-5.28.912-10.272 2.736-14.976s4.416-8.832 7.776-12.384c3.456-3.648 7.632-6.528 12.528-8.64s10.416-3.168 16.56-3.168 11.616 1.056 16.416 3.168c4.896 2.112 9.024 4.992 12.384 8.64 3.456 3.552 6.096 7.68 7.92 12.384s2.736 9.696 2.736 14.976c0 5.184-.912 10.128-2.736 14.832s-4.416 8.88-7.776 12.528c-3.36 3.552-7.488 6.384-12.384 8.496s-10.416 3.168-16.56 3.168zm-19.728-39.024c0 3.36.48 6.432 1.44 9.216 1.056 2.688 2.448 5.04 4.176 7.056 1.824 2.016 3.936 3.6 6.336 4.752 2.4 1.056 4.992 1.584 7.776 1.584s5.376-.528 7.776-1.584c2.4-1.152 4.464-2.736 6.192-4.752 1.824-2.016 3.216-4.416 4.176-7.2 1.056-2.784 1.584-5.856 1.584-9.216 0-3.264-.528-6.288-1.584-9.072-.96-2.784-2.352-5.184-4.176-7.2-1.728-2.016-3.792-3.552-6.192-4.608-2.4-1.152-4.992-1.728-7.776-1.728s-5.376.576-7.776 1.728-4.512 2.736-6.336 4.752c-1.728 2.016-3.12 4.416-4.176 7.2-.96 2.784-1.44 5.808-1.44 9.072z" fill="#000"/><path d="m688.782 109.44c-5.184 0-9.984-1.008-14.4-3.024s-8.208-4.8-11.376-8.352-5.664-7.68-7.488-12.384c-1.728-4.8-2.592-9.936-2.592-15.408s.816-10.56 2.448-15.264c1.728-4.704 4.08-8.832 7.056-12.384s6.528-6.336 10.656-8.352 8.64-3.024 13.536-3.024c5.568 0 10.56 1.344 14.976 4.032 4.512 2.688 8.016 6.192 10.512 10.512v-42.912h19.296v82.944c0 2.016.336 3.456 1.008 4.32s1.824 1.344 3.456 1.44v16.416c-3.36.672-6.096 1.008-8.208 1.008-3.456 0-6.288-.864-8.496-2.592s-3.456-3.984-3.744-6.768l-.432-4.752c-2.784 4.8-6.576 8.448-11.376 10.944-4.704 2.4-9.648 3.6-14.832 3.6zm5.04-16.416c1.824 0 3.696-.288 5.616-.864 1.92-.672 3.696-1.584 5.328-2.736s3.072-2.496 4.32-4.032c1.344-1.536 2.352-3.216 3.024-5.04v-18c-.768-2.112-1.872-4.032-3.312-5.76-1.344-1.824-2.928-3.36-4.752-4.608-1.728-1.344-3.6-2.4-5.616-3.168-1.92-.768-3.84-1.152-5.76-1.152-2.88 0-5.568.624-8.064 1.872-2.4 1.248-4.464 2.976-6.192 5.184-1.728 2.112-3.072 4.56-4.032 7.344s-1.44 5.664-1.44 8.64c0 3.168.528 6.096 1.584 8.784s2.496 5.04 4.32 7.056 3.984 3.6 6.48 4.752c2.592 1.152 5.424 1.728 8.496 1.728z" fill="#000"/><path d="m751.93 122.688c1.632.48 3.216.816 4.752 1.008 1.536.288 2.832.432 3.888.432 1.248 0 2.4-.24 3.456-.72s2.016-1.344 2.88-2.592c.864-1.152 1.728-2.784 2.592-4.896s1.776-4.752 2.736-7.92l-29.807-75.456h19.872l20.448 58.752 18.144-58.752h18.143l-31.68 90.432c-1.824 5.28-4.943 9.6-9.359 12.96s-9.889 5.04-16.417 5.04c-1.536 0-3.12-.144-4.752-.432-1.536-.192-3.168-.576-4.896-1.152z" fill="#000"/><path d="m822.235 70.272c0-5.28.912-10.272 2.736-14.976s4.464-8.832 7.92-12.384 7.632-6.384 12.528-8.496 10.416-3.168 16.56-3.168c8.256 0 15.264 1.776 21.024 5.328 5.856 3.552 10.224 8.208 13.104 13.968l-18.864 5.76c-1.632-2.784-3.792-4.896-6.48-6.336-2.688-1.536-5.664-2.304-8.928-2.304-2.784 0-5.376.576-7.776 1.728-2.4 1.056-4.512 2.592-6.336 4.608-1.728 1.92-3.12 4.272-4.176 7.056-.96 2.784-1.44 5.856-1.44 9.216s.528 6.432 1.584 9.216 2.448 5.184 4.176 7.2c1.824 2.016 3.936 3.6 6.336 4.752 2.4 1.056 4.944 1.584 7.632 1.584 3.456 0 6.624-.864 9.504-2.592 2.976-1.728 5.04-3.84 6.192-6.336l18.864 5.76c-2.592 5.76-6.864 10.464-12.816 14.112s-13.104 5.472-21.456 5.472c-6.144 0-11.664-1.056-16.56-3.168s-9.072-4.944-12.528-8.496c-3.456-3.648-6.144-7.824-8.064-12.528-1.824-4.8-2.736-9.792-2.736-14.976z" fill="#000"/><path d="m928.86 109.44c-3.648 0-7.056-.576-10.224-1.728-3.168-1.248-5.904-2.928-8.208-5.04-2.304-2.208-4.128-4.752-5.472-7.632-1.248-2.88-1.872-6.048-1.872-9.504 0-3.552.768-6.816 2.304-9.792 1.632-3.072 3.84-5.664 6.624-7.776 2.88-2.112 6.288-3.744 10.224-4.896 3.936-1.248 8.256-1.872 12.96-1.872 3.36 0 6.624.288 9.792.864 3.264.576 6.144 1.392 8.64 2.448v-4.32c0-4.992-1.44-8.832-4.32-11.52-2.784-2.688-6.96-4.032-12.528-4.032-4.032 0-7.968.72-11.808 2.16s-7.776 3.552-11.808 6.336l-5.904-12.24c9.696-6.432 20.16-9.648 31.392-9.648 10.848 0 19.248 2.688 25.2 8.064 6.048 5.28 9.072 12.96 9.072 23.04v23.472c0 2.016.336 3.456 1.008 4.32.768.864 1.968 1.344 3.6 1.44v16.416c-3.264.672-6.096 1.008-8.496 1.008-3.648 0-6.48-.816-8.496-2.448-1.92-1.632-3.12-3.792-3.6-6.48l-.432-4.176c-3.36 4.416-7.44 7.776-12.24 10.08s-9.936 3.456-15.408 3.456zm5.472-14.112c3.264 0 6.336-.576 9.216-1.728 2.976-1.152 5.28-2.688 6.912-4.608 2.112-1.632 3.168-3.456 3.168-5.472v-8.64c-2.304-.864-4.8-1.536-7.488-2.016-2.688-.576-5.28-.864-7.776-.864-4.992 0-9.072 1.152-12.24 3.456-3.168 2.208-4.752 5.04-4.752 8.496 0 3.264 1.248 6 3.744 8.208 2.496 2.112 5.568 3.168 9.216 3.168z" fill="#000"/><path d="m1035.88 49.248c-5.85.096-11.08 1.248-15.69 3.456-4.61 2.112-7.92 5.328-9.94 9.648v45.648h-19.294v-75.456h17.714v16.128c1.34-2.592 2.93-4.896 4.75-6.912 1.82-2.112 3.79-3.936 5.9-5.472 2.12-1.536 4.23-2.688 6.34-3.456 2.21-.864 4.32-1.296 6.34-1.296h2.3c.58 0 1.1.048 1.58.144z" fill="#000"/><path d="m1077.84 109.44c-6.05 0-11.52-1.008-16.42-3.024-4.89-2.112-9.07-4.944-12.53-8.496-3.45-3.552-6.14-7.68-8.06-12.384-1.82-4.704-2.74-9.648-2.74-14.832 0-5.376.92-10.416 2.74-15.12 1.82-4.8 4.46-8.976 7.92-12.528 3.46-3.648 7.63-6.528 12.53-8.64 4.99-2.112 10.56-3.168 16.7-3.168 6.15 0 11.62 1.056 16.42 3.168 4.89 2.112 9.02 4.944 12.38 8.496 3.46 3.552 6.05 7.68 7.78 12.384 1.82 4.704 2.73 9.6 2.73 14.688 0 1.248-.04 2.448-.14 3.6 0 1.152-.1 2.112-.29 2.88h-58.32c.29 2.976 1.01 5.616 2.16 7.92s2.64 4.272 4.47 5.904c1.82 1.632 3.88 2.88 6.19 3.744 2.3.864 4.7 1.296 7.2 1.296 3.84 0 7.44-.912 10.8-2.736 3.45-1.92 5.81-4.416 7.05-7.488l16.56 4.608c-2.78 5.76-7.24 10.512-13.39 14.256-6.05 3.648-13.29 5.472-21.74 5.472zm19.58-45.504c-.48-5.664-2.59-10.176-6.33-13.536-3.65-3.456-8.12-5.184-13.4-5.184-2.59 0-5.04.48-7.34 1.44-2.21.864-4.18 2.112-5.9 3.744-1.73 1.632-3.17 3.6-4.32 5.904-1.06 2.304-1.68 4.848-1.88 7.632z" fill="#000"/></mask><g stroke="#fff" stroke-width="4"><path d="m48 109.44c-5.952 0-11.136-1.296-15.552-3.888-4.416-2.688-7.872-6.288-10.368-10.8v43.92h-19.296v-106.128h16.848v12.96c2.784-4.416 6.384-7.872 10.8-10.368 4.416-2.592 9.504-3.888 15.264-3.888 5.088 0 9.792 1.056 14.112 3.168 4.32 2.016 8.016 4.8 11.088 8.352 3.168 3.456 5.616 7.584 7.344 12.384 1.824 4.704 2.736 9.696 2.736 14.976 0 5.472-.816 10.608-2.448 15.408s-3.936 8.976-6.912 12.528c-2.88 3.552-6.336 6.336-10.368 8.352s-8.448 3.024-13.248 3.024zm-6.48-16.416c2.88 0 5.52-.624 7.92-1.872 2.496-1.248 4.608-2.928 6.336-5.04s3.072-4.56 4.032-7.344 1.44-5.664 1.44-8.64c0-3.168-.528-6.096-1.584-8.784-1.056-2.784-2.544-5.184-4.464-7.2-1.824-2.016-4.032-3.6-6.624-4.752-2.496-1.152-5.232-1.728-8.208-1.728-1.824 0-3.696.336-5.616 1.008-1.92.576-3.696 1.44-5.328 2.592s-3.12 2.496-4.464 4.032c-1.248 1.536-2.208 3.216-2.88 5.04v17.712c1.728 4.32 4.368 7.92 7.92 10.8 3.552 2.784 7.392 4.176 11.52 4.176z" mask="url(#a)"/><path d="m138.978 49.248c-5.856.096-11.088 1.248-15.696 3.456-4.608 2.112-7.92 5.328-9.936 9.648v45.648h-19.2964v-75.456h17.7124v16.128c1.344-2.592 2.928-4.896 4.752-6.912 1.824-2.112 3.792-3.936 5.904-5.472s4.224-2.688 6.336-3.456c2.208-.864 4.32-1.296 6.336-1.296h2.304c.576 0 1.104.048 1.584.144z" mask="url(#a)"/><path d="m149.737 108v-75.456h19.296v75.456zm0-85.968v-19.152h19.296v19.152z" mask="url(#a)"/><path d="m303.656 108h-19.296v-42.336c0-6.048-1.056-10.464-3.168-13.248-2.016-2.784-4.848-4.176-8.496-4.176-3.84 0-7.44 1.488-10.8 4.464-3.36 2.88-5.76 6.672-7.2 11.376v43.92h-19.296v-42.336c0-6.048-1.056-10.464-3.168-13.248-2.016-2.784-4.848-4.176-8.496-4.176-3.744 0-7.344 1.44-10.8 4.32-3.36 2.88-5.76 6.672-7.2 11.376v44.064h-19.296v-75.456h17.424v13.968c2.784-4.896 6.576-8.64 11.376-11.232 4.896-2.688 10.464-4.032 16.704-4.032 6.336 0 11.232 1.536 14.688 4.608s5.664 6.864 6.624 11.376c3.072-5.184 6.96-9.12 11.664-11.808 4.704-2.784 10.08-4.176 16.128-4.176 4.608 0 8.4.864 11.376 2.592s5.28 3.984 6.912 6.768 2.736 5.952 3.312 9.504c.672 3.552 1.008 7.152 1.008 10.8z" mask="url(#a)"/><path d="m341.048 109.44c-3.648 0-7.056-.576-10.224-1.728-3.168-1.248-5.904-2.928-8.208-5.04-2.304-2.208-4.128-4.752-5.472-7.632-1.248-2.88-1.872-6.048-1.872-9.504 0-3.552.768-6.816 2.304-9.792 1.632-3.072 3.84-5.664 6.624-7.776 2.88-2.112 6.288-3.744 10.224-4.896 3.936-1.248 8.256-1.872 12.96-1.872 3.36 0 6.624.288 9.792.864 3.264.576 6.144 1.392 8.64 2.448v-4.32c0-4.992-1.44-8.832-4.32-11.52-2.784-2.688-6.96-4.032-12.528-4.032-4.032 0-7.968.72-11.808 2.16s-7.776 3.552-11.808 6.336l-5.904-12.24c9.696-6.432 20.16-9.648 31.392-9.648 10.848 0 19.248 2.688 25.2 8.064 6.048 5.28 9.072 12.96 9.072 23.04v23.472c0 2.016.336 3.456 1.008 4.32.768.864 1.968 1.344 3.6 1.44v16.416c-3.264.672-6.096 1.008-8.496 1.008-3.648 0-6.48-.816-8.496-2.448-1.92-1.632-3.12-3.792-3.6-6.48l-.432-4.176c-3.36 4.416-7.44 7.776-12.24 10.08s-9.936 3.456-15.408 3.456zm5.472-14.112c3.264 0 6.336-.576 9.216-1.728 2.976-1.152 5.28-2.688 6.912-4.608 2.112-1.632 3.168-3.456 3.168-5.472v-8.64c-2.304-.864-4.8-1.536-7.488-2.016-2.688-.576-5.28-.864-7.776-.864-4.992 0-9.072 1.152-12.24 3.456-3.168 2.208-4.752 5.04-4.752 8.496 0 3.264 1.248 6 3.744 8.208 2.496 2.112 5.568 3.168 9.216 3.168z" mask="url(#a)"/><path d="m402.999 2.88h19.296v80.928c0 2.784.672 4.944 2.016 6.48s3.264 2.304 5.76 2.304c1.152 0 2.4-.192 3.744-.576 1.44-.384 2.784-.864 4.032-1.44l2.592 14.688c-2.592 1.248-5.616 2.208-9.072 2.88s-6.576 1.008-9.36 1.008c-6.048 0-10.752-1.584-14.112-4.752-3.264-3.264-4.896-7.872-4.896-13.824z" mask="url(#a)"/><path d="m521.852 109.44c-5.76 0-10.896-1.296-15.408-3.888s-8.064-6.144-10.656-10.656v13.104h-16.848v-105.12h19.296v42.912c2.688-4.608 6.192-8.16 10.512-10.656 4.416-2.592 9.552-3.888 15.408-3.888 4.896 0 9.36 1.056 13.392 3.168s7.488 4.944 10.368 8.496c2.976 3.552 5.232 7.728 6.768 12.528 1.632 4.8 2.448 9.84 2.448 15.12 0 5.472-.912 10.56-2.736 15.264-1.728 4.704-4.176 8.832-7.344 12.384-3.168 3.456-6.912 6.192-11.232 8.208s-8.976 3.024-13.968 3.024zm-5.328-16.416c3.072 0 5.904-.576 8.496-1.728 2.592-1.248 4.8-2.88 6.624-4.896s3.216-4.368 4.176-7.056c1.056-2.688 1.584-5.568 1.584-8.64s-.48-6-1.44-8.784-2.352-5.232-4.176-7.344c-1.728-2.112-3.792-3.792-6.192-5.04s-5.04-1.872-7.92-1.872c-4.32 0-8.208 1.44-11.664 4.32-3.36 2.784-5.952 6.24-7.776 10.368v18c.672 1.92 1.632 3.648 2.88 5.184 1.344 1.536 2.832 2.88 4.464 4.032 1.632 1.056 3.408 1.92 5.328 2.592 1.92.576 3.792.864 5.616.864z" mask="url(#a)"/><path d="m605.054 109.44c-6.144 0-11.664-1.056-16.56-3.168s-9.072-4.944-12.528-8.496c-3.36-3.648-5.952-7.824-7.776-12.528s-2.736-9.648-2.736-14.832c0-5.28.912-10.272 2.736-14.976s4.416-8.832 7.776-12.384c3.456-3.648 7.632-6.528 12.528-8.64s10.416-3.168 16.56-3.168 11.616 1.056 16.416 3.168c4.896 2.112 9.024 4.992 12.384 8.64 3.456 3.552 6.096 7.68 7.92 12.384s2.736 9.696 2.736 14.976c0 5.184-.912 10.128-2.736 14.832s-4.416 8.88-7.776 12.528c-3.36 3.552-7.488 6.384-12.384 8.496s-10.416 3.168-16.56 3.168zm-19.728-39.024c0 3.36.48 6.432 1.44 9.216 1.056 2.688 2.448 5.04 4.176 7.056 1.824 2.016 3.936 3.6 6.336 4.752 2.4 1.056 4.992 1.584 7.776 1.584s5.376-.528 7.776-1.584c2.4-1.152 4.464-2.736 6.192-4.752 1.824-2.016 3.216-4.416 4.176-7.2 1.056-2.784 1.584-5.856 1.584-9.216 0-3.264-.528-6.288-1.584-9.072-.96-2.784-2.352-5.184-4.176-7.2-1.728-2.016-3.792-3.552-6.192-4.608-2.4-1.152-4.992-1.728-7.776-1.728s-5.376.576-7.776 1.728-4.512 2.736-6.336 4.752c-1.728 2.016-3.12 4.416-4.176 7.2-.96 2.784-1.44 5.808-1.44 9.072z" mask="url(#a)"/><path d="m688.782 109.44c-5.184 0-9.984-1.008-14.4-3.024s-8.208-4.8-11.376-8.352-5.664-7.68-7.488-12.384c-1.728-4.8-2.592-9.936-2.592-15.408s.816-10.56 2.448-15.264c1.728-4.704 4.08-8.832 7.056-12.384s6.528-6.336 10.656-8.352 8.64-3.024 13.536-3.024c5.568 0 10.56 1.344 14.976 4.032 4.512 2.688 8.016 6.192 10.512 10.512v-42.912h19.296v82.944c0 2.016.336 3.456 1.008 4.32s1.824 1.344 3.456 1.44v16.416c-3.36.672-6.096 1.008-8.208 1.008-3.456 0-6.288-.864-8.496-2.592s-3.456-3.984-3.744-6.768l-.432-4.752c-2.784 4.8-6.576 8.448-11.376 10.944-4.704 2.4-9.648 3.6-14.832 3.6zm5.04-16.416c1.824 0 3.696-.288 5.616-.864 1.92-.672 3.696-1.584 5.328-2.736s3.072-2.496 4.32-4.032c1.344-1.536 2.352-3.216 3.024-5.04v-18c-.768-2.112-1.872-4.032-3.312-5.76-1.344-1.824-2.928-3.36-4.752-4.608-1.728-1.344-3.6-2.4-5.616-3.168-1.92-.768-3.84-1.152-5.76-1.152-2.88 0-5.568.624-8.064 1.872-2.4 1.248-4.464 2.976-6.192 5.184-1.728 2.112-3.072 4.56-4.032 7.344s-1.44 5.664-1.44 8.64c0 3.168.528 6.096 1.584 8.784s2.496 5.04 4.32 7.056 3.984 3.6 6.48 4.752c2.592 1.152 5.424 1.728 8.496 1.728z" mask="url(#a)"/><path d="m751.93 122.688c1.632.48 3.216.816 4.752 1.008 1.536.288 2.832.432 3.888.432 1.248 0 2.4-.24 3.456-.72s2.016-1.344 2.88-2.592c.864-1.152 1.728-2.784 2.592-4.896s1.776-4.752 2.736-7.92l-29.807-75.456h19.872l20.448 58.752 18.144-58.752h18.143l-31.68 90.432c-1.824 5.28-4.943 9.6-9.359 12.96s-9.889 5.04-16.417 5.04c-1.536 0-3.12-.144-4.752-.432-1.536-.192-3.168-.576-4.896-1.152z" mask="url(#a)"/><path d="m822.235 70.272c0-5.28.912-10.272 2.736-14.976s4.464-8.832 7.92-12.384 7.632-6.384 12.528-8.496 10.416-3.168 16.56-3.168c8.256 0 15.264 1.776 21.024 5.328 5.856 3.552 10.224 8.208 13.104 13.968l-18.864 5.76c-1.632-2.784-3.792-4.896-6.48-6.336-2.688-1.536-5.664-2.304-8.928-2.304-2.784 0-5.376.576-7.776 1.728-2.4 1.056-4.512 2.592-6.336 4.608-1.728 1.92-3.12 4.272-4.176 7.056-.96 2.784-1.44 5.856-1.44 9.216s.528 6.432 1.584 9.216 2.448 5.184 4.176 7.2c1.824 2.016 3.936 3.6 6.336 4.752 2.4 1.056 4.944 1.584 7.632 1.584 3.456 0 6.624-.864 9.504-2.592 2.976-1.728 5.04-3.84 6.192-6.336l18.864 5.76c-2.592 5.76-6.864 10.464-12.816 14.112s-13.104 5.472-21.456 5.472c-6.144 0-11.664-1.056-16.56-3.168s-9.072-4.944-12.528-8.496c-3.456-3.648-6.144-7.824-8.064-12.528-1.824-4.8-2.736-9.792-2.736-14.976z" mask="url(#a)"/><path d="m928.86 109.44c-3.648 0-7.056-.576-10.224-1.728-3.168-1.248-5.904-2.928-8.208-5.04-2.304-2.208-4.128-4.752-5.472-7.632-1.248-2.88-1.872-6.048-1.872-9.504 0-3.552.768-6.816 2.304-9.792 1.632-3.072 3.84-5.664 6.624-7.776 2.88-2.112 6.288-3.744 10.224-4.896 3.936-1.248 8.256-1.872 12.96-1.872 3.36 0 6.624.288 9.792.864 3.264.576 6.144 1.392 8.64 2.448v-4.32c0-4.992-1.44-8.832-4.32-11.52-2.784-2.688-6.96-4.032-12.528-4.032-4.032 0-7.968.72-11.808 2.16s-7.776 3.552-11.808 6.336l-5.904-12.24c9.696-6.432 20.16-9.648 31.392-9.648 10.848 0 19.248 2.688 25.2 8.064 6.048 5.28 9.072 12.96 9.072 23.04v23.472c0 2.016.336 3.456 1.008 4.32.768.864 1.968 1.344 3.6 1.44v16.416c-3.264.672-6.096 1.008-8.496 1.008-3.648 0-6.48-.816-8.496-2.448-1.92-1.632-3.12-3.792-3.6-6.48l-.432-4.176c-3.36 4.416-7.44 7.776-12.24 10.08s-9.936 3.456-15.408 3.456zm5.472-14.112c3.264 0 6.336-.576 9.216-1.728 2.976-1.152 5.28-2.688 6.912-4.608 2.112-1.632 3.168-3.456 3.168-5.472v-8.64c-2.304-.864-4.8-1.536-7.488-2.016-2.688-.576-5.28-.864-7.776-.864-4.992 0-9.072 1.152-12.24 3.456-3.168 2.208-4.752 5.04-4.752 8.496 0 3.264 1.248 6 3.744 8.208 2.496 2.112 5.568 3.168 9.216 3.168z" mask="url(#a)"/><path d="m1035.88 49.248c-5.85.096-11.08 1.248-15.69 3.456-4.61 2.112-7.92 5.328-9.94 9.648v45.648h-19.294v-75.456h17.714v16.128c1.34-2.592 2.93-4.896 4.75-6.912 1.82-2.112 3.79-3.936 5.9-5.472 2.12-1.536 4.23-2.688 6.34-3.456 2.21-.864 4.32-1.296 6.34-1.296h2.3c.58 0 1.1.048 1.58.144z" mask="url(#a)"/><path d="m1077.84 109.44c-6.05 0-11.52-1.008-16.42-3.024-4.89-2.112-9.07-4.944-12.53-8.496-3.45-3.552-6.14-7.68-8.06-12.384-1.82-4.704-2.74-9.648-2.74-14.832 0-5.376.92-10.416 2.74-15.12 1.82-4.8 4.46-8.976 7.92-12.528 3.46-3.648 7.63-6.528 12.53-8.64 4.99-2.112 10.56-3.168 16.7-3.168 6.15 0 11.62 1.056 16.42 3.168 4.89 2.112 9.02 4.944 12.38 8.496 3.46 3.552 6.05 7.68 7.78 12.384 1.82 4.704 2.73 9.6 2.73 14.688 0 1.248-.04 2.448-.14 3.6 0 1.152-.1 2.112-.29 2.88h-58.32c.29 2.976 1.01 5.616 2.16 7.92s2.64 4.272 4.47 5.904c1.82 1.632 3.88 2.88 6.19 3.744 2.3.864 4.7 1.296 7.2 1.296 3.84 0 7.44-.912 10.8-2.736 3.45-1.92 5.81-4.416 7.05-7.488l16.56 4.608c-2.78 5.76-7.24 10.512-13.39 14.256-6.05 3.648-13.29 5.472-21.74 5.472zm19.58-45.504c-.48-5.664-2.59-10.176-6.33-13.536-3.65-3.456-8.12-5.184-13.4-5.184-2.59 0-5.04.48-7.34 1.44-2.21.864-4.18 2.112-5.9 3.744-1.73 1.632-3.17 3.6-4.32 5.904-1.06 2.304-1.68 4.848-1.88 7.632z" mask="url(#a)"/></g></svg>