<svg width="1120" height="143" viewBox="0 0 1120 143" fill="none" xmlns="http://www.w3.org/2000/svg">
<mask id="path-1-outside-1" maskUnits="userSpaceOnUse" x="0.783997" y="0.880005" width="1119" height="143" fill="black">
<rect fill="white" x="0.783997" y="0.880005" width="1119" height="143"/>
<path d="M48 109.44C42.048 109.44 36.864 108.144 32.448 105.552C28.032 102.864 24.576 99.264 22.08 94.752V138.672H2.784V32.544H19.632V45.504C22.416 41.088 26.016 37.632 30.432 35.136C34.848 32.544 39.936 31.248 45.696 31.248C50.784 31.248 55.488 32.304 59.808 34.416C64.128 36.432 67.824 39.216 70.896 42.768C74.064 46.224 76.512 50.352 78.24 55.152C80.064 59.856 80.976 64.848 80.976 70.128C80.976 75.6 80.16 80.736 78.528 85.536C76.896 90.336 74.592 94.512 71.616 98.064C68.736 101.616 65.28 104.4 61.248 106.416C57.216 108.432 52.8 109.44 48 109.44ZM41.52 93.024C44.4 93.024 47.04 92.4 49.44 91.152C51.936 89.904 54.048 88.224 55.776 86.112C57.504 84 58.848 81.552 59.808 78.768C60.768 75.984 61.248 73.104 61.248 70.128C61.248 66.96 60.72 64.032 59.664 61.344C58.608 58.56 57.12 56.16 55.2 54.144C53.376 52.128 51.168 50.544 48.576 49.392C46.08 48.24 43.344 47.664 40.368 47.664C38.544 47.664 36.672 48 34.752 48.672C32.832 49.248 31.056 50.112 29.424 51.264C27.792 52.416 26.304 53.76 24.96 55.296C23.712 56.832 22.752 58.512 22.08 60.336V78.048C23.808 82.368 26.448 85.968 30 88.848C33.552 91.632 37.392 93.024 41.52 93.024Z"/>
<path d="M138.978 49.248C133.122 49.344 127.89 50.496 123.282 52.704C118.674 54.816 115.362 58.032 113.346 62.352V108H94.0496V32.544H111.762V48.672C113.106 46.08 114.69 43.776 116.514 41.76C118.338 39.648 120.306 37.824 122.418 36.288C124.53 34.752 126.642 33.6 128.754 32.832C130.962 31.968 133.074 31.536 135.09 31.536C136.146 31.536 136.914 31.536 137.394 31.536C137.97 31.536 138.498 31.584 138.978 31.68V49.248Z"/>
<path d="M149.737 108V32.544H169.033V108H149.737ZM149.737 22.032V2.88H169.033V22.032H149.737Z"/>
<path d="M303.656 108H284.36V65.664C284.36 59.616 283.304 55.2 281.192 52.416C279.176 49.632 276.344 48.24 272.696 48.24C268.856 48.24 265.256 49.728 261.896 52.704C258.536 55.584 256.136 59.376 254.696 64.08V108H235.4V65.664C235.4 59.616 234.344 55.2 232.232 52.416C230.216 49.632 227.384 48.24 223.736 48.24C219.992 48.24 216.392 49.68 212.936 52.56C209.576 55.44 207.176 59.232 205.736 63.936V108H186.44V32.544H203.864V46.512C206.648 41.616 210.44 37.872 215.24 35.28C220.136 32.592 225.704 31.248 231.944 31.248C238.28 31.248 243.176 32.784 246.632 35.856C250.088 38.928 252.296 42.72 253.256 47.232C256.328 42.048 260.216 38.112 264.92 35.424C269.624 32.64 275 31.248 281.048 31.248C285.656 31.248 289.448 32.112 292.424 33.84C295.4 35.568 297.704 37.824 299.336 40.608C300.968 43.392 302.072 46.56 302.648 50.112C303.32 53.664 303.656 57.264 303.656 60.912V108Z"/>
<path d="M341.048 109.44C337.4 109.44 333.992 108.864 330.824 107.712C327.656 106.464 324.92 104.784 322.616 102.672C320.312 100.464 318.488 97.92 317.144 95.04C315.896 92.16 315.272 88.992 315.272 85.536C315.272 81.984 316.04 78.72 317.576 75.744C319.208 72.672 321.416 70.08 324.2 67.968C327.08 65.856 330.488 64.224 334.424 63.072C338.36 61.824 342.68 61.2 347.384 61.2C350.744 61.2 354.008 61.488 357.176 62.064C360.44 62.64 363.32 63.456 365.816 64.512V60.192C365.816 55.2 364.376 51.36 361.496 48.672C358.712 45.984 354.536 44.64 348.968 44.64C344.936 44.64 341 45.36 337.16 46.8C333.32 48.24 329.384 50.352 325.352 53.136L319.448 40.896C329.144 34.464 339.608 31.248 350.84 31.248C361.688 31.248 370.088 33.936 376.04 39.312C382.088 44.592 385.112 52.272 385.112 62.352V85.824C385.112 87.84 385.448 89.28 386.12 90.144C386.888 91.008 388.088 91.488 389.72 91.584V108C386.456 108.672 383.624 109.008 381.224 109.008C377.576 109.008 374.744 108.192 372.728 106.56C370.808 104.928 369.608 102.768 369.128 100.08L368.696 95.904C365.336 100.32 361.256 103.68 356.456 105.984C351.656 108.288 346.52 109.44 341.048 109.44ZM346.52 95.328C349.784 95.328 352.856 94.752 355.736 93.6C358.712 92.448 361.016 90.912 362.648 88.992C364.76 87.36 365.816 85.536 365.816 83.52V74.88C363.512 74.016 361.016 73.344 358.328 72.864C355.64 72.288 353.048 72 350.552 72C345.56 72 341.48 73.152 338.312 75.456C335.144 77.664 333.56 80.496 333.56 83.952C333.56 87.216 334.808 89.952 337.304 92.16C339.8 94.272 342.872 95.328 346.52 95.328Z"/>
<path d="M402.999 2.88H422.295V83.808C422.295 86.592 422.967 88.752 424.311 90.288C425.655 91.824 427.575 92.592 430.071 92.592C431.223 92.592 432.471 92.4 433.815 92.016C435.255 91.632 436.599 91.152 437.847 90.576L440.439 105.264C437.847 106.512 434.823 107.472 431.367 108.144C427.911 108.816 424.791 109.152 422.007 109.152C415.959 109.152 411.255 107.568 407.895 104.4C404.631 101.136 402.999 96.528 402.999 90.576V2.88Z"/>
<path d="M521.852 109.44C516.092 109.44 510.956 108.144 506.444 105.552C501.932 102.96 498.38 99.408 495.788 94.896V108H478.94V2.88H498.236V45.792C500.924 41.184 504.428 37.632 508.748 35.136C513.164 32.544 518.3 31.248 524.156 31.248C529.052 31.248 533.516 32.304 537.548 34.416C541.58 36.528 545.036 39.36 547.916 42.912C550.892 46.464 553.148 50.64 554.684 55.44C556.316 60.24 557.132 65.28 557.132 70.56C557.132 76.032 556.22 81.12 554.396 85.824C552.668 90.528 550.22 94.656 547.052 98.208C543.884 101.664 540.14 104.4 535.82 106.416C531.5 108.432 526.844 109.44 521.852 109.44ZM516.524 93.024C519.596 93.024 522.428 92.448 525.02 91.296C527.612 90.048 529.82 88.416 531.644 86.4C533.468 84.384 534.86 82.032 535.82 79.344C536.876 76.656 537.404 73.776 537.404 70.704C537.404 67.632 536.924 64.704 535.964 61.92C535.004 59.136 533.612 56.688 531.788 54.576C530.06 52.464 527.996 50.784 525.596 49.536C523.196 48.288 520.556 47.664 517.676 47.664C513.356 47.664 509.468 49.104 506.012 51.984C502.652 54.768 500.06 58.224 498.236 62.352V80.352C498.908 82.272 499.868 84 501.116 85.536C502.46 87.072 503.948 88.416 505.58 89.568C507.212 90.624 508.988 91.488 510.908 92.16C512.828 92.736 514.7 93.024 516.524 93.024Z"/>
<path d="M605.054 109.44C598.91 109.44 593.39 108.384 588.494 106.272C583.598 104.16 579.422 101.328 575.966 97.776C572.606 94.128 570.014 89.952 568.19 85.248C566.366 80.544 565.454 75.6 565.454 70.416C565.454 65.136 566.366 60.144 568.19 55.44C570.014 50.736 572.606 46.608 575.966 43.056C579.422 39.408 583.598 36.528 588.494 34.416C593.39 32.304 598.91 31.248 605.054 31.248C611.198 31.248 616.67 32.304 621.47 34.416C626.366 36.528 630.494 39.408 633.854 43.056C637.31 46.608 639.95 50.736 641.774 55.44C643.598 60.144 644.51 65.136 644.51 70.416C644.51 75.6 643.598 80.544 641.774 85.248C639.95 89.952 637.358 94.128 633.998 97.776C630.638 101.328 626.51 104.16 621.614 106.272C616.718 108.384 611.198 109.44 605.054 109.44ZM585.326 70.416C585.326 73.776 585.806 76.848 586.766 79.632C587.822 82.32 589.214 84.672 590.942 86.688C592.766 88.704 594.878 90.288 597.278 91.44C599.678 92.496 602.27 93.024 605.054 93.024C607.838 93.024 610.43 92.496 612.83 91.44C615.23 90.288 617.294 88.704 619.022 86.688C620.846 84.672 622.238 82.272 623.198 79.488C624.254 76.704 624.782 73.632 624.782 70.272C624.782 67.008 624.254 63.984 623.198 61.2C622.238 58.416 620.846 56.016 619.022 54C617.294 51.984 615.23 50.448 612.83 49.392C610.43 48.24 607.838 47.664 605.054 47.664C602.27 47.664 599.678 48.24 597.278 49.392C594.878 50.544 592.766 52.128 590.942 54.144C589.214 56.16 587.822 58.56 586.766 61.344C585.806 64.128 585.326 67.152 585.326 70.416Z"/>
<path d="M688.782 109.44C683.598 109.44 678.798 108.432 674.382 106.416C669.966 104.4 666.174 101.616 663.006 98.064C659.838 94.512 657.342 90.384 655.518 85.68C653.79 80.88 652.926 75.744 652.926 70.272C652.926 64.8 653.742 59.712 655.374 55.008C657.102 50.304 659.454 46.176 662.43 42.624C665.406 39.072 668.958 36.288 673.086 34.272C677.214 32.256 681.726 31.248 686.622 31.248C692.19 31.248 697.182 32.592 701.598 35.28C706.11 37.968 709.614 41.472 712.11 45.792V2.88H731.406V85.824C731.406 87.84 731.742 89.28 732.414 90.144C733.086 91.008 734.238 91.488 735.87 91.584V108C732.51 108.672 729.774 109.008 727.662 109.008C724.206 109.008 721.374 108.144 719.166 106.416C716.958 104.688 715.71 102.432 715.422 99.648L714.99 94.896C712.206 99.696 708.414 103.344 703.614 105.84C698.91 108.24 693.966 109.44 688.782 109.44ZM693.822 93.024C695.646 93.024 697.518 92.736 699.438 92.16C701.358 91.488 703.134 90.576 704.766 89.424C706.398 88.272 707.838 86.928 709.086 85.392C710.43 83.856 711.438 82.176 712.11 80.352V62.352C711.342 60.24 710.238 58.32 708.798 56.592C707.454 54.768 705.87 53.232 704.046 51.984C702.318 50.64 700.446 49.584 698.43 48.816C696.51 48.048 694.59 47.664 692.67 47.664C689.79 47.664 687.102 48.288 684.606 49.536C682.206 50.784 680.142 52.512 678.414 54.72C676.686 56.832 675.342 59.28 674.382 62.064C673.422 64.848 672.942 67.728 672.942 70.704C672.942 73.872 673.47 76.8 674.526 79.488C675.582 82.176 677.022 84.528 678.846 86.544C680.67 88.56 682.83 90.144 685.326 91.296C687.918 92.448 690.75 93.024 693.822 93.024Z"/>
<path d="M751.93 122.688C753.562 123.168 755.146 123.504 756.682 123.696C758.218 123.984 759.514 124.128 760.57 124.128C761.818 124.128 762.97 123.888 764.026 123.408C765.082 122.928 766.042 122.064 766.906 120.816C767.77 119.664 768.634 118.032 769.498 115.92C770.362 113.808 771.274 111.168 772.234 108L742.427 32.544H762.299L782.747 91.296L800.891 32.544H819.034L787.354 122.976C785.53 128.256 782.411 132.576 777.995 135.936C773.579 139.296 768.106 140.976 761.578 140.976C760.042 140.976 758.458 140.832 756.826 140.544C755.29 140.352 753.658 139.968 751.93 139.392V122.688Z"/>
<path d="M822.235 70.272C822.235 64.992 823.147 60 824.971 55.296C826.795 50.592 829.435 46.464 832.891 42.912C836.347 39.36 840.523 36.528 845.419 34.416C850.315 32.304 855.835 31.248 861.979 31.248C870.235 31.248 877.243 33.024 883.003 36.576C888.859 40.128 893.227 44.784 896.107 50.544L877.243 56.304C875.611 53.52 873.451 51.408 870.763 49.968C868.075 48.432 865.099 47.664 861.835 47.664C859.051 47.664 856.459 48.24 854.059 49.392C851.659 50.448 849.547 51.984 847.723 54C845.995 55.92 844.603 58.272 843.547 61.056C842.587 63.84 842.107 66.912 842.107 70.272C842.107 73.632 842.635 76.704 843.691 79.488C844.747 82.272 846.139 84.672 847.867 86.688C849.691 88.704 851.803 90.288 854.203 91.44C856.603 92.496 859.147 93.024 861.835 93.024C865.291 93.024 868.459 92.16 871.339 90.432C874.315 88.704 876.379 86.592 877.531 84.096L896.395 89.856C893.803 95.616 889.531 100.32 883.579 103.968C877.627 107.616 870.475 109.44 862.123 109.44C855.979 109.44 850.459 108.384 845.563 106.272C840.667 104.16 836.491 101.328 833.035 97.776C829.579 94.128 826.891 89.952 824.971 85.248C823.147 80.448 822.235 75.456 822.235 70.272Z"/>
<path d="M928.86 109.44C925.212 109.44 921.804 108.864 918.636 107.712C915.468 106.464 912.732 104.784 910.428 102.672C908.124 100.464 906.3 97.92 904.956 95.04C903.708 92.16 903.084 88.992 903.084 85.536C903.084 81.984 903.852 78.72 905.388 75.744C907.02 72.672 909.228 70.08 912.012 67.968C914.892 65.856 918.3 64.224 922.236 63.072C926.172 61.824 930.492 61.2 935.196 61.2C938.556 61.2 941.82 61.488 944.988 62.064C948.252 62.64 951.132 63.456 953.628 64.512V60.192C953.628 55.2 952.188 51.36 949.308 48.672C946.524 45.984 942.348 44.64 936.78 44.64C932.748 44.64 928.812 45.36 924.972 46.8C921.132 48.24 917.196 50.352 913.164 53.136L907.26 40.896C916.956 34.464 927.42 31.248 938.652 31.248C949.5 31.248 957.9 33.936 963.852 39.312C969.9 44.592 972.924 52.272 972.924 62.352V85.824C972.924 87.84 973.26 89.28 973.932 90.144C974.7 91.008 975.9 91.488 977.532 91.584V108C974.268 108.672 971.436 109.008 969.036 109.008C965.388 109.008 962.556 108.192 960.54 106.56C958.62 104.928 957.42 102.768 956.94 100.08L956.508 95.904C953.148 100.32 949.068 103.68 944.268 105.984C939.468 108.288 934.332 109.44 928.86 109.44ZM934.332 95.328C937.596 95.328 940.668 94.752 943.548 93.6C946.524 92.448 948.828 90.912 950.46 88.992C952.572 87.36 953.628 85.536 953.628 83.52V74.88C951.324 74.016 948.828 73.344 946.14 72.864C943.452 72.288 940.86 72 938.364 72C933.372 72 929.292 73.152 926.124 75.456C922.956 77.664 921.372 80.496 921.372 83.952C921.372 87.216 922.62 89.952 925.116 92.16C927.612 94.272 930.684 95.328 934.332 95.328Z"/>
<path d="M1035.88 49.248C1030.03 49.344 1024.8 50.496 1020.19 52.704C1015.58 54.816 1012.27 58.032 1010.25 62.352V108H990.956V32.544H1008.67V48.672C1010.01 46.08 1011.6 43.776 1013.42 41.76C1015.24 39.648 1017.21 37.824 1019.32 36.288C1021.44 34.752 1023.55 33.6 1025.66 32.832C1027.87 31.968 1029.98 31.536 1032 31.536C1033.05 31.536 1033.82 31.536 1034.3 31.536C1034.88 31.536 1035.4 31.584 1035.88 31.68V49.248Z"/>
<path d="M1077.84 109.44C1071.79 109.44 1066.32 108.432 1061.42 106.416C1056.53 104.304 1052.35 101.472 1048.89 97.92C1045.44 94.368 1042.75 90.24 1040.83 85.536C1039.01 80.832 1038.09 75.888 1038.09 70.704C1038.09 65.328 1039.01 60.288 1040.83 55.584C1042.65 50.784 1045.29 46.608 1048.75 43.056C1052.21 39.408 1056.38 36.528 1061.28 34.416C1066.27 32.304 1071.84 31.248 1077.98 31.248C1084.13 31.248 1089.6 32.304 1094.4 34.416C1099.29 36.528 1103.42 39.36 1106.78 42.912C1110.24 46.464 1112.83 50.592 1114.56 55.296C1116.38 60 1117.29 64.896 1117.29 69.984C1117.29 71.232 1117.25 72.432 1117.15 73.584C1117.15 74.736 1117.05 75.696 1116.86 76.464H1058.54C1058.83 79.44 1059.55 82.08 1060.7 84.384C1061.85 86.688 1063.34 88.656 1065.17 90.288C1066.99 91.92 1069.05 93.168 1071.36 94.032C1073.66 94.896 1076.06 95.328 1078.56 95.328C1082.4 95.328 1086 94.416 1089.36 92.592C1092.81 90.672 1095.17 88.176 1096.41 85.104L1112.97 89.712C1110.19 95.472 1105.73 100.224 1099.58 103.968C1093.53 107.616 1086.29 109.44 1077.84 109.44ZM1097.42 63.936C1096.94 58.272 1094.83 53.76 1091.09 50.4C1087.44 46.944 1082.97 45.216 1077.69 45.216C1075.1 45.216 1072.65 45.696 1070.35 46.656C1068.14 47.52 1066.17 48.768 1064.45 50.4C1062.72 52.032 1061.28 54 1060.13 56.304C1059.07 58.608 1058.45 61.152 1058.25 63.936H1097.42Z"/>
</mask>
<path d="M48 109.44C42.048 109.44 36.864 108.144 32.448 105.552C28.032 102.864 24.576 99.264 22.08 94.752V138.672H2.784V32.544H19.632V45.504C22.416 41.088 26.016 37.632 30.432 35.136C34.848 32.544 39.936 31.248 45.696 31.248C50.784 31.248 55.488 32.304 59.808 34.416C64.128 36.432 67.824 39.216 70.896 42.768C74.064 46.224 76.512 50.352 78.24 55.152C80.064 59.856 80.976 64.848 80.976 70.128C80.976 75.6 80.16 80.736 78.528 85.536C76.896 90.336 74.592 94.512 71.616 98.064C68.736 101.616 65.28 104.4 61.248 106.416C57.216 108.432 52.8 109.44 48 109.44ZM41.52 93.024C44.4 93.024 47.04 92.4 49.44 91.152C51.936 89.904 54.048 88.224 55.776 86.112C57.504 84 58.848 81.552 59.808 78.768C60.768 75.984 61.248 73.104 61.248 70.128C61.248 66.96 60.72 64.032 59.664 61.344C58.608 58.56 57.12 56.16 55.2 54.144C53.376 52.128 51.168 50.544 48.576 49.392C46.08 48.24 43.344 47.664 40.368 47.664C38.544 47.664 36.672 48 34.752 48.672C32.832 49.248 31.056 50.112 29.424 51.264C27.792 52.416 26.304 53.76 24.96 55.296C23.712 56.832 22.752 58.512 22.08 60.336V78.048C23.808 82.368 26.448 85.968 30 88.848C33.552 91.632 37.392 93.024 41.52 93.024Z" stroke="white" stroke-width="4" mask="url(#path-1-outside-1)"/>
<path d="M138.978 49.248C133.122 49.344 127.89 50.496 123.282 52.704C118.674 54.816 115.362 58.032 113.346 62.352V108H94.0496V32.544H111.762V48.672C113.106 46.08 114.69 43.776 116.514 41.76C118.338 39.648 120.306 37.824 122.418 36.288C124.53 34.752 126.642 33.6 128.754 32.832C130.962 31.968 133.074 31.536 135.09 31.536C136.146 31.536 136.914 31.536 137.394 31.536C137.97 31.536 138.498 31.584 138.978 31.68V49.248Z" stroke="white" stroke-width="4" mask="url(#path-1-outside-1)"/>
<path d="M149.737 108V32.544H169.033V108H149.737ZM149.737 22.032V2.88H169.033V22.032H149.737Z" stroke="white" stroke-width="4" mask="url(#path-1-outside-1)"/>
<path d="M303.656 108H284.36V65.664C284.36 59.616 283.304 55.2 281.192 52.416C279.176 49.632 276.344 48.24 272.696 48.24C268.856 48.24 265.256 49.728 261.896 52.704C258.536 55.584 256.136 59.376 254.696 64.08V108H235.4V65.664C235.4 59.616 234.344 55.2 232.232 52.416C230.216 49.632 227.384 48.24 223.736 48.24C219.992 48.24 216.392 49.68 212.936 52.56C209.576 55.44 207.176 59.232 205.736 63.936V108H186.44V32.544H203.864V46.512C206.648 41.616 210.44 37.872 215.24 35.28C220.136 32.592 225.704 31.248 231.944 31.248C238.28 31.248 243.176 32.784 246.632 35.856C250.088 38.928 252.296 42.72 253.256 47.232C256.328 42.048 260.216 38.112 264.92 35.424C269.624 32.64 275 31.248 281.048 31.248C285.656 31.248 289.448 32.112 292.424 33.84C295.4 35.568 297.704 37.824 299.336 40.608C300.968 43.392 302.072 46.56 302.648 50.112C303.32 53.664 303.656 57.264 303.656 60.912V108Z" stroke="white" stroke-width="4" mask="url(#path-1-outside-1)"/>
<path d="M341.048 109.44C337.4 109.44 333.992 108.864 330.824 107.712C327.656 106.464 324.92 104.784 322.616 102.672C320.312 100.464 318.488 97.92 317.144 95.04C315.896 92.16 315.272 88.992 315.272 85.536C315.272 81.984 316.04 78.72 317.576 75.744C319.208 72.672 321.416 70.08 324.2 67.968C327.08 65.856 330.488 64.224 334.424 63.072C338.36 61.824 342.68 61.2 347.384 61.2C350.744 61.2 354.008 61.488 357.176 62.064C360.44 62.64 363.32 63.456 365.816 64.512V60.192C365.816 55.2 364.376 51.36 361.496 48.672C358.712 45.984 354.536 44.64 348.968 44.64C344.936 44.64 341 45.36 337.16 46.8C333.32 48.24 329.384 50.352 325.352 53.136L319.448 40.896C329.144 34.464 339.608 31.248 350.84 31.248C361.688 31.248 370.088 33.936 376.04 39.312C382.088 44.592 385.112 52.272 385.112 62.352V85.824C385.112 87.84 385.448 89.28 386.12 90.144C386.888 91.008 388.088 91.488 389.72 91.584V108C386.456 108.672 383.624 109.008 381.224 109.008C377.576 109.008 374.744 108.192 372.728 106.56C370.808 104.928 369.608 102.768 369.128 100.08L368.696 95.904C365.336 100.32 361.256 103.68 356.456 105.984C351.656 108.288 346.52 109.44 341.048 109.44ZM346.52 95.328C349.784 95.328 352.856 94.752 355.736 93.6C358.712 92.448 361.016 90.912 362.648 88.992C364.76 87.36 365.816 85.536 365.816 83.52V74.88C363.512 74.016 361.016 73.344 358.328 72.864C355.64 72.288 353.048 72 350.552 72C345.56 72 341.48 73.152 338.312 75.456C335.144 77.664 333.56 80.496 333.56 83.952C333.56 87.216 334.808 89.952 337.304 92.16C339.8 94.272 342.872 95.328 346.52 95.328Z" stroke="white" stroke-width="4" mask="url(#path-1-outside-1)"/>
<path d="M402.999 2.88H422.295V83.808C422.295 86.592 422.967 88.752 424.311 90.288C425.655 91.824 427.575 92.592 430.071 92.592C431.223 92.592 432.471 92.4 433.815 92.016C435.255 91.632 436.599 91.152 437.847 90.576L440.439 105.264C437.847 106.512 434.823 107.472 431.367 108.144C427.911 108.816 424.791 109.152 422.007 109.152C415.959 109.152 411.255 107.568 407.895 104.4C404.631 101.136 402.999 96.528 402.999 90.576V2.88Z" stroke="white" stroke-width="4" mask="url(#path-1-outside-1)"/>
<path d="M521.852 109.44C516.092 109.44 510.956 108.144 506.444 105.552C501.932 102.96 498.38 99.408 495.788 94.896V108H478.94V2.88H498.236V45.792C500.924 41.184 504.428 37.632 508.748 35.136C513.164 32.544 518.3 31.248 524.156 31.248C529.052 31.248 533.516 32.304 537.548 34.416C541.58 36.528 545.036 39.36 547.916 42.912C550.892 46.464 553.148 50.64 554.684 55.44C556.316 60.24 557.132 65.28 557.132 70.56C557.132 76.032 556.22 81.12 554.396 85.824C552.668 90.528 550.22 94.656 547.052 98.208C543.884 101.664 540.14 104.4 535.82 106.416C531.5 108.432 526.844 109.44 521.852 109.44ZM516.524 93.024C519.596 93.024 522.428 92.448 525.02 91.296C527.612 90.048 529.82 88.416 531.644 86.4C533.468 84.384 534.86 82.032 535.82 79.344C536.876 76.656 537.404 73.776 537.404 70.704C537.404 67.632 536.924 64.704 535.964 61.92C535.004 59.136 533.612 56.688 531.788 54.576C530.06 52.464 527.996 50.784 525.596 49.536C523.196 48.288 520.556 47.664 517.676 47.664C513.356 47.664 509.468 49.104 506.012 51.984C502.652 54.768 500.06 58.224 498.236 62.352V80.352C498.908 82.272 499.868 84 501.116 85.536C502.46 87.072 503.948 88.416 505.58 89.568C507.212 90.624 508.988 91.488 510.908 92.16C512.828 92.736 514.7 93.024 516.524 93.024Z" stroke="white" stroke-width="4" mask="url(#path-1-outside-1)"/>
<path d="M605.054 109.44C598.91 109.44 593.39 108.384 588.494 106.272C583.598 104.16 579.422 101.328 575.966 97.776C572.606 94.128 570.014 89.952 568.19 85.248C566.366 80.544 565.454 75.6 565.454 70.416C565.454 65.136 566.366 60.144 568.19 55.44C570.014 50.736 572.606 46.608 575.966 43.056C579.422 39.408 583.598 36.528 588.494 34.416C593.39 32.304 598.91 31.248 605.054 31.248C611.198 31.248 616.67 32.304 621.47 34.416C626.366 36.528 630.494 39.408 633.854 43.056C637.31 46.608 639.95 50.736 641.774 55.44C643.598 60.144 644.51 65.136 644.51 70.416C644.51 75.6 643.598 80.544 641.774 85.248C639.95 89.952 637.358 94.128 633.998 97.776C630.638 101.328 626.51 104.16 621.614 106.272C616.718 108.384 611.198 109.44 605.054 109.44ZM585.326 70.416C585.326 73.776 585.806 76.848 586.766 79.632C587.822 82.32 589.214 84.672 590.942 86.688C592.766 88.704 594.878 90.288 597.278 91.44C599.678 92.496 602.27 93.024 605.054 93.024C607.838 93.024 610.43 92.496 612.83 91.44C615.23 90.288 617.294 88.704 619.022 86.688C620.846 84.672 622.238 82.272 623.198 79.488C624.254 76.704 624.782 73.632 624.782 70.272C624.782 67.008 624.254 63.984 623.198 61.2C622.238 58.416 620.846 56.016 619.022 54C617.294 51.984 615.23 50.448 612.83 49.392C610.43 48.24 607.838 47.664 605.054 47.664C602.27 47.664 599.678 48.24 597.278 49.392C594.878 50.544 592.766 52.128 590.942 54.144C589.214 56.16 587.822 58.56 586.766 61.344C585.806 64.128 585.326 67.152 585.326 70.416Z" stroke="white" stroke-width="4" mask="url(#path-1-outside-1)"/>
<path d="M688.782 109.44C683.598 109.44 678.798 108.432 674.382 106.416C669.966 104.4 666.174 101.616 663.006 98.064C659.838 94.512 657.342 90.384 655.518 85.68C653.79 80.88 652.926 75.744 652.926 70.272C652.926 64.8 653.742 59.712 655.374 55.008C657.102 50.304 659.454 46.176 662.43 42.624C665.406 39.072 668.958 36.288 673.086 34.272C677.214 32.256 681.726 31.248 686.622 31.248C692.19 31.248 697.182 32.592 701.598 35.28C706.11 37.968 709.614 41.472 712.11 45.792V2.88H731.406V85.824C731.406 87.84 731.742 89.28 732.414 90.144C733.086 91.008 734.238 91.488 735.87 91.584V108C732.51 108.672 729.774 109.008 727.662 109.008C724.206 109.008 721.374 108.144 719.166 106.416C716.958 104.688 715.71 102.432 715.422 99.648L714.99 94.896C712.206 99.696 708.414 103.344 703.614 105.84C698.91 108.24 693.966 109.44 688.782 109.44ZM693.822 93.024C695.646 93.024 697.518 92.736 699.438 92.16C701.358 91.488 703.134 90.576 704.766 89.424C706.398 88.272 707.838 86.928 709.086 85.392C710.43 83.856 711.438 82.176 712.11 80.352V62.352C711.342 60.24 710.238 58.32 708.798 56.592C707.454 54.768 705.87 53.232 704.046 51.984C702.318 50.64 700.446 49.584 698.43 48.816C696.51 48.048 694.59 47.664 692.67 47.664C689.79 47.664 687.102 48.288 684.606 49.536C682.206 50.784 680.142 52.512 678.414 54.72C676.686 56.832 675.342 59.28 674.382 62.064C673.422 64.848 672.942 67.728 672.942 70.704C672.942 73.872 673.47 76.8 674.526 79.488C675.582 82.176 677.022 84.528 678.846 86.544C680.67 88.56 682.83 90.144 685.326 91.296C687.918 92.448 690.75 93.024 693.822 93.024Z" stroke="white" stroke-width="4" mask="url(#path-1-outside-1)"/>
<path d="M751.93 122.688C753.562 123.168 755.146 123.504 756.682 123.696C758.218 123.984 759.514 124.128 760.57 124.128C761.818 124.128 762.97 123.888 764.026 123.408C765.082 122.928 766.042 122.064 766.906 120.816C767.77 119.664 768.634 118.032 769.498 115.92C770.362 113.808 771.274 111.168 772.234 108L742.427 32.544H762.299L782.747 91.296L800.891 32.544H819.034L787.354 122.976C785.53 128.256 782.411 132.576 777.995 135.936C773.579 139.296 768.106 140.976 761.578 140.976C760.042 140.976 758.458 140.832 756.826 140.544C755.29 140.352 753.658 139.968 751.93 139.392V122.688Z" stroke="white" stroke-width="4" mask="url(#path-1-outside-1)"/>
<path d="M822.235 70.272C822.235 64.992 823.147 60 824.971 55.296C826.795 50.592 829.435 46.464 832.891 42.912C836.347 39.36 840.523 36.528 845.419 34.416C850.315 32.304 855.835 31.248 861.979 31.248C870.235 31.248 877.243 33.024 883.003 36.576C888.859 40.128 893.227 44.784 896.107 50.544L877.243 56.304C875.611 53.52 873.451 51.408 870.763 49.968C868.075 48.432 865.099 47.664 861.835 47.664C859.051 47.664 856.459 48.24 854.059 49.392C851.659 50.448 849.547 51.984 847.723 54C845.995 55.92 844.603 58.272 843.547 61.056C842.587 63.84 842.107 66.912 842.107 70.272C842.107 73.632 842.635 76.704 843.691 79.488C844.747 82.272 846.139 84.672 847.867 86.688C849.691 88.704 851.803 90.288 854.203 91.44C856.603 92.496 859.147 93.024 861.835 93.024C865.291 93.024 868.459 92.16 871.339 90.432C874.315 88.704 876.379 86.592 877.531 84.096L896.395 89.856C893.803 95.616 889.531 100.32 883.579 103.968C877.627 107.616 870.475 109.44 862.123 109.44C855.979 109.44 850.459 108.384 845.563 106.272C840.667 104.16 836.491 101.328 833.035 97.776C829.579 94.128 826.891 89.952 824.971 85.248C823.147 80.448 822.235 75.456 822.235 70.272Z" stroke="white" stroke-width="4" mask="url(#path-1-outside-1)"/>
<path d="M928.86 109.44C925.212 109.44 921.804 108.864 918.636 107.712C915.468 106.464 912.732 104.784 910.428 102.672C908.124 100.464 906.3 97.92 904.956 95.04C903.708 92.16 903.084 88.992 903.084 85.536C903.084 81.984 903.852 78.72 905.388 75.744C907.02 72.672 909.228 70.08 912.012 67.968C914.892 65.856 918.3 64.224 922.236 63.072C926.172 61.824 930.492 61.2 935.196 61.2C938.556 61.2 941.82 61.488 944.988 62.064C948.252 62.64 951.132 63.456 953.628 64.512V60.192C953.628 55.2 952.188 51.36 949.308 48.672C946.524 45.984 942.348 44.64 936.78 44.64C932.748 44.64 928.812 45.36 924.972 46.8C921.132 48.24 917.196 50.352 913.164 53.136L907.26 40.896C916.956 34.464 927.42 31.248 938.652 31.248C949.5 31.248 957.9 33.936 963.852 39.312C969.9 44.592 972.924 52.272 972.924 62.352V85.824C972.924 87.84 973.26 89.28 973.932 90.144C974.7 91.008 975.9 91.488 977.532 91.584V108C974.268 108.672 971.436 109.008 969.036 109.008C965.388 109.008 962.556 108.192 960.54 106.56C958.62 104.928 957.42 102.768 956.94 100.08L956.508 95.904C953.148 100.32 949.068 103.68 944.268 105.984C939.468 108.288 934.332 109.44 928.86 109.44ZM934.332 95.328C937.596 95.328 940.668 94.752 943.548 93.6C946.524 92.448 948.828 90.912 950.46 88.992C952.572 87.36 953.628 85.536 953.628 83.52V74.88C951.324 74.016 948.828 73.344 946.14 72.864C943.452 72.288 940.86 72 938.364 72C933.372 72 929.292 73.152 926.124 75.456C922.956 77.664 921.372 80.496 921.372 83.952C921.372 87.216 922.62 89.952 925.116 92.16C927.612 94.272 930.684 95.328 934.332 95.328Z" stroke="white" stroke-width="4" mask="url(#path-1-outside-1)"/>
<path d="M1035.88 49.248C1030.03 49.344 1024.8 50.496 1020.19 52.704C1015.58 54.816 1012.27 58.032 1010.25 62.352V108H990.956V32.544H1008.67V48.672C1010.01 46.08 1011.6 43.776 1013.42 41.76C1015.24 39.648 1017.21 37.824 1019.32 36.288C1021.44 34.752 1023.55 33.6 1025.66 32.832C1027.87 31.968 1029.98 31.536 1032 31.536C1033.05 31.536 1033.82 31.536 1034.3 31.536C1034.88 31.536 1035.4 31.584 1035.88 31.68V49.248Z" stroke="white" stroke-width="4" mask="url(#path-1-outside-1)"/>
<path d="M1077.84 109.44C1071.79 109.44 1066.32 108.432 1061.42 106.416C1056.53 104.304 1052.35 101.472 1048.89 97.92C1045.44 94.368 1042.75 90.24 1040.83 85.536C1039.01 80.832 1038.09 75.888 1038.09 70.704C1038.09 65.328 1039.01 60.288 1040.83 55.584C1042.65 50.784 1045.29 46.608 1048.75 43.056C1052.21 39.408 1056.38 36.528 1061.28 34.416C1066.27 32.304 1071.84 31.248 1077.98 31.248C1084.13 31.248 1089.6 32.304 1094.4 34.416C1099.29 36.528 1103.42 39.36 1106.78 42.912C1110.24 46.464 1112.83 50.592 1114.56 55.296C1116.38 60 1117.29 64.896 1117.29 69.984C1117.29 71.232 1117.25 72.432 1117.15 73.584C1117.15 74.736 1117.05 75.696 1116.86 76.464H1058.54C1058.83 79.44 1059.55 82.08 1060.7 84.384C1061.85 86.688 1063.34 88.656 1065.17 90.288C1066.99 91.92 1069.05 93.168 1071.36 94.032C1073.66 94.896 1076.06 95.328 1078.56 95.328C1082.4 95.328 1086 94.416 1089.36 92.592C1092.81 90.672 1095.17 88.176 1096.41 85.104L1112.97 89.712C1110.19 95.472 1105.73 100.224 1099.58 103.968C1093.53 107.616 1086.29 109.44 1077.84 109.44ZM1097.42 63.936C1096.94 58.272 1094.83 53.76 1091.09 50.4C1087.44 46.944 1082.97 45.216 1077.69 45.216C1075.1 45.216 1072.65 45.696 1070.35 46.656C1068.14 47.52 1066.17 48.768 1064.45 50.4C1062.72 52.032 1061.28 54 1060.13 56.304C1059.07 58.608 1058.45 61.152 1058.25 63.936H1097.42Z" stroke="white" stroke-width="4" mask="url(#path-1-outside-1)"/>
</svg>
