<svg fill="none" height="106" viewBox="0 0 260 106" width="260" xmlns="http://www.w3.org/2000/svg"><g stroke="#fff" stroke-width="2"><path d="m71.992 85.816v17.424h-70.992v-102.24h69.696v17.424h-49.824v24.624h43.056v16.128h-43.056v26.64z"/><path d="m117.085 104.68c-6.144 0-11.664-1.056-16.56-3.168-4.8956-2.112-9.0716-4.944-12.5276-8.496-3.36-3.648-5.952-7.824-7.776-12.528s-2.736-9.648-2.736-14.832c0-5.28.912-10.272 2.736-14.976s4.416-8.832 7.776-12.384c3.456-3.648 7.632-6.528 12.5276-8.64 4.896-2.112 10.416-3.168 16.56-3.168s11.616 1.056 16.416 3.168c4.896 2.112 9.024 4.992 12.384 8.64 3.456 3.552 6.096 7.68 7.92 12.384s2.736 9.696 2.736 14.976c0 5.184-.912 10.128-2.736 14.832s-4.416 8.88-7.776 12.528c-3.36 3.552-7.488 6.384-12.384 8.496s-10.416 3.168-16.56 3.168zm-19.7276-39.024c0 3.36.48 6.432 1.44 9.216 1.056 2.688 2.4476 5.04 4.1756 7.056 1.824 2.016 3.936 3.6 6.336 4.752 2.4 1.056 4.992 1.584 7.776 1.584s5.376-.528 7.776-1.584c2.4-1.152 4.464-2.736 6.192-4.752 1.824-2.016 3.216-4.416 4.176-7.2 1.056-2.784 1.584-5.856 1.584-9.216 0-3.264-.528-6.288-1.584-9.072-.96-2.784-2.352-5.184-4.176-7.2-1.728-2.016-3.792-3.552-6.192-4.608-2.4-1.152-4.992-1.728-7.776-1.728s-5.376.576-7.776 1.728-4.512 2.736-6.336 4.752c-1.728 2.016-3.1196 4.416-4.1756 7.2-.96 2.784-1.44 5.808-1.44 9.072z"/><path d="m170.453 103.24v-102.24h37.152c8.352 0 15.648 1.344 21.888 4.032 6.336 2.688 11.616 6.336 15.84 10.944s7.392 10.032 9.504 16.272c2.112 6.144 3.168 12.72 3.168 19.728 0 7.776-1.2 14.832-3.6 21.168-2.304 6.24-5.664 11.616-10.08 16.128-4.416 4.416-9.744 7.872-15.984 10.368-6.144 2.4-13.056 3.6-20.736 3.6zm67.536-51.264c0-4.896-.672-9.408-2.016-13.536s-3.312-7.68-5.904-10.656-5.808-5.28-9.648-6.912c-3.744-1.632-8.016-2.448-12.816-2.448h-17.28v67.392h17.28c4.896 0 9.216-.864 12.96-2.592 3.84-1.728 7.008-4.08 9.504-7.056 2.592-3.072 4.56-6.672 5.904-10.8s2.016-8.592 2.016-13.392z"/></g></svg>