<svg fill="none" height="109" viewBox="0 0 738 109" width="738" xmlns="http://www.w3.org/2000/svg"><g stroke="#fff" stroke-width="2"><path d="m78.04 94.6c-8.16 8.16-17.664 12.24-28.512 12.24-6.72 0-13.056-1.344-19.008-4.032-5.856-2.688-10.992-6.384-15.408-11.088-4.32-4.704-7.776-10.224-10.368-16.56-2.496-6.432-3.744-13.344-3.744-20.736 0-7.008 1.248-13.584 3.744-19.728 2.592-6.24 6.096-11.664 10.512-16.272 4.512-4.704 9.792-8.4 15.84-11.08801 6.048-2.78399 12.624-4.17599 19.728-4.17599 9.6 0 17.808 2.016 24.624 6.048 6.912 4.032 12.096 9.456 15.552 16.272l-14.832 10.944c-2.592-5.088-6.24-8.976-10.944-11.664-4.608-2.688-9.648-4.032-15.12-4.032-4.32 0-8.304.912-11.952 2.736-3.552 1.824-6.624 4.32-9.216 7.488-2.496 3.168-4.464 6.816-5.904 10.944-1.344 4.128-2.016 8.496-2.016 13.104 0 4.8.768 9.312 2.304 13.536 1.536 4.128 3.648 7.728 6.336 10.8s5.856 5.52 9.504 7.344c3.744 1.728 7.776 2.592 12.096 2.592 9.888 0 18.816-4.656 26.784-13.968v-7.2h-20.592v-14.544h37.008v52.56h-16.416z"/><path d="m144.512 107.56c-6.048 0-11.52-1.008-16.416-3.024-4.896-2.112-9.072-4.944-12.528-8.496s-6.144-7.68-8.064-12.384c-1.824-4.704-2.736-9.648-2.736-14.832 0-5.376.912-10.416 2.736-15.12 1.824-4.8 4.464-8.976 7.92-12.528 3.456-3.648 7.632-6.528 12.528-8.64 4.992-2.112 10.56-3.168 16.704-3.168s11.616 1.056 16.416 3.168c4.896 2.112 9.024 4.944 12.384 8.496 3.456 3.552 6.048 7.68 7.776 12.384 1.824 4.704 2.736 9.6 2.736 14.688 0 1.248-.048 2.448-.144 3.6 0 1.152-.096 2.112-.288 2.88h-58.32c.288 2.976 1.008 5.616 2.16 7.92s2.64 4.272 4.464 5.904 3.888 2.88 6.192 3.744 4.704 1.296 7.2 1.296c3.84 0 7.44-.912 10.8-2.736 3.456-1.92 5.808-4.416 7.056-7.488l16.56 4.608c-2.784 5.76-7.248 10.512-13.392 14.256-6.048 3.648-13.296 5.472-21.744 5.472zm19.584-45.504c-.48-5.664-2.592-10.176-6.336-13.536-3.648-3.456-8.112-5.184-13.392-5.184-2.592 0-5.04.48-7.344 1.44-2.208.864-4.176 2.112-5.904 3.744s-3.168 3.6-4.32 5.904c-1.056 2.304-1.68 4.848-1.872 7.632z"/><path d="m230.715 107.56c-6.048 0-11.52-1.008-16.416-3.024-4.896-2.112-9.072-4.944-12.528-8.496s-6.144-7.68-8.064-12.384c-1.824-4.704-2.736-9.648-2.736-14.832 0-5.376.912-10.416 2.736-15.12 1.824-4.8 4.464-8.976 7.92-12.528 3.456-3.648 7.632-6.528 12.528-8.64 4.992-2.112 10.56-3.168 16.704-3.168s11.616 1.056 16.416 3.168c4.896 2.112 9.024 4.944 12.384 8.496 3.456 3.552 6.048 7.68 7.776 12.384 1.824 4.704 2.736 9.6 2.736 14.688 0 1.248-.048 2.448-.144 3.6 0 1.152-.096 2.112-.288 2.88h-58.32c.288 2.976 1.008 5.616 2.16 7.92s2.64 4.272 4.464 5.904 3.888 2.88 6.192 3.744 4.704 1.296 7.2 1.296c3.84 0 7.44-.912 10.8-2.736 3.456-1.92 5.808-4.416 7.056-7.488l16.56 4.608c-2.784 5.76-7.248 10.512-13.392 14.256-6.048 3.648-13.296 5.472-21.744 5.472zm19.584-45.504c-.48-5.664-2.592-10.176-6.336-13.536-3.648-3.456-8.112-5.184-13.392-5.184-2.592 0-5.04.48-7.344 1.44-2.208.864-4.176 2.112-5.904 3.744s-3.168 3.6-4.32 5.904c-1.056 2.304-1.68 4.848-1.872 7.632z"/><path d="m333.478 106.12-21.888-32.688-10.368 10.224v22.464h-19.296v-105.12h19.296v63.792l30.24-33.984h20.592l-28.08 31.968 30.096 43.344z"/><path d="m425.007 30.664c-.672-.672-1.92-1.584-3.744-2.736-1.728-1.152-3.888-2.256-6.48-3.312-2.496-1.152-5.232-2.112-8.208-2.88s-6-1.152-9.072-1.152c-5.472 0-9.552 1.008-12.24 3.024s-4.032 4.848-4.032 8.496c0 2.112.48 3.888 1.44 5.328 1.056 1.344 2.544 2.544 4.464 3.6s4.32 2.016 7.2 2.88c2.976.864 6.384 1.776 10.224 2.736 4.992 1.344 9.504 2.784 13.536 4.32 4.128 1.536 7.584 3.456 10.368 5.76 2.88 2.304 5.088 5.088 6.624 8.352 1.536 3.168 2.304 7.104 2.304 11.808 0 5.472-1.056 10.176-3.168 14.112-2.016 3.84-4.8 6.96-8.352 9.36-3.456 2.4-7.488 4.176-12.096 5.328-4.512 1.056-9.264 1.584-14.256 1.584-7.68 0-15.264-1.152-22.752-3.456s-14.208-5.568-20.16-9.792l8.784-17.136c.864.864 2.4 2.016 4.608 3.456 2.304 1.344 4.992 2.736 8.064 4.176 3.072 1.344 6.48 2.496 10.224 3.456s7.584 1.44 11.52 1.44c10.944 0 16.416-3.504 16.416-10.512 0-2.208-.624-4.08-1.872-5.616s-3.024-2.88-5.328-4.032-5.088-2.208-8.352-3.168-6.912-2.016-10.944-3.168c-4.896-1.344-9.168-2.784-12.816-4.32-3.552-1.632-6.528-3.504-8.928-5.616-2.4-2.208-4.224-4.704-5.472-7.488-1.152-2.88-1.728-6.288-1.728-10.224 0-5.184.96-9.792 2.88-13.824s4.56-7.392 7.92-10.08c3.456-2.688 7.44-4.704 11.952-6.048 4.512-1.44 9.36-2.16 14.544-2.16 7.2 0 13.824 1.152 19.872 3.456 6.048 2.208 11.328 4.848 15.84 7.92z"/><path d="m471.127 107.56c-3.648 0-7.056-.576-10.224-1.728-3.168-1.248-5.904-2.928-8.208-5.04-2.304-2.208-4.128-4.752-5.472-7.632-1.248-2.88-1.872-6.048-1.872-9.504 0-3.552.768-6.816 2.304-9.792 1.632-3.072 3.84-5.664 6.624-7.776 2.88-2.112 6.288-3.744 10.224-4.896 3.936-1.248 8.256-1.872 12.96-1.872 3.36 0 6.624.288 9.792.864 3.264.576 6.144 1.392 8.64 2.448v-4.32c0-4.992-1.44-8.832-4.32-11.52-2.784-2.688-6.96-4.032-12.528-4.032-4.032 0-7.968.72-11.808 2.16s-7.776 3.552-11.808 6.336l-5.904-12.24c9.696-6.432 20.16-9.648 31.392-9.648 10.848 0 19.248 2.688 25.2 8.064 6.048 5.28 9.072 12.96 9.072 23.04v23.472c0 2.016.336 3.456 1.008 4.32.768.864 1.968 1.344 3.6 1.44v16.416c-3.264.672-6.096 1.008-8.496 1.008-3.648 0-6.48-.816-8.496-2.448-1.92-1.632-3.12-3.792-3.6-6.48l-.432-4.176c-3.36 4.416-7.44 7.776-12.24 10.08s-9.936 3.456-15.408 3.456zm5.472-14.112c3.264 0 6.336-.576 9.216-1.728 2.976-1.152 5.28-2.688 6.912-4.608 2.112-1.632 3.168-3.456 3.168-5.472v-8.64c-2.304-.864-4.8-1.536-7.488-2.016-2.688-.576-5.28-.864-7.776-.864-4.992 0-9.072 1.152-12.24 3.456-3.168 2.208-4.752 5.04-4.752 8.496 0 3.264 1.248 6 3.744 8.208 2.496 2.112 5.568 3.168 9.216 3.168z"/><path d="m533.079 1h19.296v80.928c0 2.784.672 4.944 2.016 6.48s3.264 2.304 5.76 2.304c1.152 0 2.4-.192 3.744-.576 1.44-.384 2.784-.864 4.032-1.44l2.592 14.688c-2.592 1.248-5.616 2.208-9.072 2.88s-6.576 1.008-9.36 1.008c-6.048 0-10.752-1.584-14.112-4.752-3.264-3.264-4.896-7.872-4.896-13.824z"/><path d="m613.774 107.56c-6.144 0-11.664-1.056-16.56-3.168s-9.072-4.944-12.528-8.496c-3.36-3.648-5.952-7.824-7.776-12.528s-2.736-9.648-2.736-14.832c0-5.28.912-10.272 2.736-14.976s4.416-8.832 7.776-12.384c3.456-3.648 7.632-6.528 12.528-8.64s10.416-3.168 16.56-3.168 11.616 1.056 16.416 3.168c4.896 2.112 9.024 4.992 12.384 8.64 3.456 3.552 6.096 7.68 7.92 12.384s2.736 9.696 2.736 14.976c0 5.184-.912 10.128-2.736 14.832s-4.416 8.88-7.776 12.528c-3.36 3.552-7.488 6.384-12.384 8.496s-10.416 3.168-16.56 3.168zm-19.728-39.024c0 3.36.48 6.432 1.44 9.216 1.056 2.688 2.448 5.04 4.176 7.056 1.824 2.016 3.936 3.6 6.336 4.752 2.4 1.056 4.992 1.584 7.776 1.584s5.376-.528 7.776-1.584c2.4-1.152 4.464-2.736 6.192-4.752 1.824-2.016 3.216-4.416 4.176-7.2 1.056-2.784 1.584-5.856 1.584-9.216 0-3.264-.528-6.288-1.584-9.072-.96-2.784-2.352-5.184-4.176-7.2-1.728-2.016-3.792-3.552-6.192-4.608-2.4-1.152-4.992-1.728-7.776-1.728s-5.376.576-7.776 1.728-4.512 2.736-6.336 4.752c-1.728 2.016-3.12 4.416-4.176 7.2-.96 2.784-1.44 5.808-1.44 9.072z"/><path d="m736.382 106.12h-19.296v-42.336c0-6.048-1.056-10.464-3.168-13.248s-5.04-4.176-8.784-4.176c-1.92 0-3.888.384-5.904 1.152s-3.936 1.872-5.76 3.312c-1.728 1.344-3.312 2.976-4.752 4.896s-2.496 4.032-3.168 6.336v44.064h-19.296v-75.456h17.424v13.968c2.784-4.8 6.816-8.544 12.096-11.232s11.232-4.032 17.856-4.032c4.704 0 8.544.864 11.52 2.592s5.28 3.984 6.912 6.768 2.736 5.952 3.312 9.504c.672 3.552 1.008 7.152 1.008 10.8z"/></g></svg>