<svg fill="none" height="106" viewBox="0 0 653 106" width="653" xmlns="http://www.w3.org/2000/svg"><g stroke="#fff" stroke-width="2"><path d="m84.376 103.96v-67.68l-26.352 50.4h-10.8l-26.352-50.4v67.68h-19.872v-102.24h21.312l30.24 58.176 30.528-58.176h21.168v102.24z"/><path d="m154.682 1.72h17.568l38.88 102.24h-20.448l-9.504-25.488h-35.712l-9.36 25.488h-20.448zm22.896 62.784-14.112-40.176-14.688 40.176z"/><path d="m242.216 38.44v65.52h-19.872v-102.24h15.408l53.28 67.104v-66.96h19.872v102.096h-16.128z"/><path d="m375.804 104.68c-7.488 0-14.304-1.44-20.448-4.32-6.048-2.976-11.28-6.864-15.696-11.664-4.32-4.896-7.68-10.464-10.08-16.704s-3.6-12.624-3.6-19.152c0-6.816 1.248-13.344 3.744-19.584 2.592-6.24 6.096-11.76 10.512-16.56 4.512-4.8 9.84-8.592 15.984-11.376 6.144-2.88 12.816-4.32 20.016-4.32 7.392 0 14.112 1.536 20.16 4.608 6.144 2.976 11.376 6.912 15.696 11.808s7.68 10.464 10.08 16.704 3.6 12.576 3.6 19.008c0 6.816-1.248 13.344-3.744 19.584-2.496 6.144-5.952 11.616-10.368 16.416-4.416 4.704-9.696 8.496-15.84 11.376-6.144 2.784-12.816 4.176-20.016 4.176zm-29.664-51.84c0 4.416.672 8.688 2.016 12.816s3.264 7.776 5.76 10.944c2.592 3.168 5.712 5.712 9.36 7.632 3.744 1.92 7.968 2.88 12.672 2.88 4.8 0 9.024-.96 12.672-2.88 3.744-2.016 6.864-4.656 9.36-7.92 2.592-3.264 4.512-6.912 5.76-10.944 1.344-4.128 2.016-8.304 2.016-12.528 0-4.416-.72-8.688-2.16-12.816-1.344-4.128-3.312-7.776-5.904-10.944-2.496-3.168-5.616-5.664-9.36-7.488-3.648-1.92-7.776-2.88-12.384-2.88-4.8 0-9.072 1.008-12.816 3.024-3.744 1.92-6.864 4.512-9.36 7.776-2.496 3.168-4.416 6.816-5.76 10.944-1.248 4.032-1.872 8.16-1.872 12.384z"/><path d="m524.392 103.96v-67.68l-26.352 50.4h-10.8l-26.352-50.4v67.68h-19.872v-102.24h21.312l30.24 58.176 30.528-58.176h21.168v102.24z"/><path d="m594.697 1.72h17.568l38.88 102.24h-20.448l-9.504-25.488h-35.712l-9.36 25.488h-20.448zm22.896 62.784-14.112-40.176-14.688 40.176z"/></g></svg>