<svg fill="none" height="110" viewBox="0 0 881 110" width="881" xmlns="http://www.w3.org/2000/svg"><g stroke="#fff" stroke-width="2"><path d="m1 107.56v-102.24h43.344c4.704 0 9.024 1.008 12.96 3.024 4.032 1.92 7.488 4.512 10.368 7.776 2.88 3.168 5.136 6.816 6.768 10.944 1.632 4.032 2.448 8.112 2.448 12.24 0 4.32-.768 8.544-2.304 12.672-1.536 4.032-3.696 7.632-6.48 10.8s-6.144 5.712-10.08 7.632-8.256 2.88-12.96 2.88h-24.192v34.272zm19.872-51.696h23.04c3.648 0 6.672-1.488 9.072-4.464 2.496-2.976 3.744-7.008 3.744-12.096 0-2.592-.384-4.896-1.152-6.912-.768-2.112-1.776-3.888-3.024-5.328s-2.736-2.496-4.464-3.168c-1.632-.768-3.312-1.152-5.04-1.152h-22.176z"/><path d="m122.429 109c-6.144 0-11.664-1.056-16.56-3.168s-9.0719-4.944-12.5279-8.496c-3.36-3.648-5.952-7.824-7.776-12.528s-2.736-9.648-2.736-14.832c0-5.28.912-10.272 2.736-14.976s4.416-8.832 7.776-12.384c3.456-3.648 7.6319-6.528 12.5279-8.64s10.416-3.168 16.56-3.168 11.616 1.056 16.416 3.168c4.896 2.112 9.024 4.992 12.384 8.64 3.456 3.552 6.096 7.68 7.92 12.384s2.736 9.696 2.736 14.976c0 5.184-.912 10.128-2.736 14.832s-4.416 8.88-7.776 12.528c-3.36 3.552-7.488 6.384-12.384 8.496s-10.416 3.168-16.56 3.168zm-19.728-39.024c0 3.36.48 6.432 1.44 9.216 1.056 2.688 2.448 5.04 4.176 7.056 1.824 2.016 3.936 3.6 6.336 4.752 2.4 1.056 4.992 1.584 7.776 1.584s5.376-.528 7.776-1.584c2.4-1.152 4.464-2.736 6.192-4.752 1.824-2.016 3.216-4.416 4.176-7.2 1.056-2.784 1.584-5.856 1.584-9.216 0-3.264-.528-6.288-1.584-9.072-.96-2.784-2.352-5.184-4.176-7.2-1.728-2.016-3.792-3.552-6.192-4.608-2.4-1.152-4.992-1.728-7.776-1.728s-5.376.576-7.776 1.728-4.512 2.736-6.336 4.752c-1.728 2.016-3.12 4.416-4.176 7.2-.96 2.784-1.44 5.808-1.44 9.072z"/><path d="m219.837 48.808c-5.856.096-11.088 1.248-15.696 3.456-4.608 2.112-7.92 5.328-9.936 9.648v45.648h-19.296v-75.456h17.712v16.128c1.344-2.592 2.928-4.896 4.752-6.912 1.824-2.112 3.792-3.936 5.904-5.472s4.224-2.688 6.336-3.456c2.208-.864 4.32-1.296 6.336-1.296h2.304c.576 0 1.104.048 1.584.144z"/><path d="m275.813 103.672c-2.592 1.152-5.76 2.304-9.504 3.456s-7.68 1.728-11.808 1.728c-2.688 0-5.232-.336-7.632-1.008-2.304-.672-4.368-1.728-6.192-3.168-1.728-1.536-3.12-3.456-4.176-5.76-1.056-2.4-1.584-5.28-1.584-8.64v-43.344h-9.936v-14.832h9.936v-24.48h19.296v24.48h15.84v14.832h-15.84v36.864c0 2.688.672 4.608 2.016 5.76 1.44 1.056 3.168 1.584 5.184 1.584s3.984-.336 5.904-1.008 3.456-1.248 4.608-1.728z"/><path d="m290.47 107.56v-56.736h-9.936v-14.688h9.936v-4.608c0-9.408 2.256-16.848 6.768-22.32s10.656-8.208 18.432-8.208c6.144 0 12.336 1.488 18.576 4.46399l-3.888 14.54401c-1.44-.768-3.168-1.392-5.184-1.872-1.92-.576-3.696-.864-5.328-.864-6.72 0-10.08 4.512-10.08 13.536v5.328h18.432v14.688h-18.432v56.736z"/><path d="m370.21 109c-6.144 0-11.664-1.056-16.56-3.168s-9.072-4.944-12.528-8.496c-3.36-3.648-5.952-7.824-7.776-12.528s-2.736-9.648-2.736-14.832c0-5.28.912-10.272 2.736-14.976s4.416-8.832 7.776-12.384c3.456-3.648 7.632-6.528 12.528-8.64s10.416-3.168 16.56-3.168 11.616 1.056 16.416 3.168c4.896 2.112 9.024 4.992 12.384 8.64 3.456 3.552 6.096 7.68 7.92 12.384s2.736 9.696 2.736 14.976c0 5.184-.912 10.128-2.736 14.832s-4.416 8.88-7.776 12.528c-3.36 3.552-7.488 6.384-12.384 8.496s-10.416 3.168-16.56 3.168zm-19.728-39.024c0 3.36.48 6.432 1.44 9.216 1.056 2.688 2.448 5.04 4.176 7.056 1.824 2.016 3.936 3.6 6.336 4.752 2.4 1.056 4.992 1.584 7.776 1.584s5.376-.528 7.776-1.584c2.4-1.152 4.464-2.736 6.192-4.752 1.824-2.016 3.216-4.416 4.176-7.2 1.056-2.784 1.584-5.856 1.584-9.216 0-3.264-.528-6.288-1.584-9.072-.96-2.784-2.352-5.184-4.176-7.2-1.728-2.016-3.792-3.552-6.192-4.608-2.4-1.152-4.992-1.728-7.776-1.728s-5.376.576-7.776 1.728-4.512 2.736-6.336 4.752c-1.728 2.016-3.12 4.416-4.176 7.2-.96 2.784-1.44 5.808-1.44 9.072z"/><path d="m422.547 2.44h19.295v80.928c0 2.784.672 4.944 2.016 6.48s3.265 2.304 5.76 2.304c1.153 0 2.4-.192 3.744-.576 1.44-.384 2.784-.864 4.033-1.44l2.592 14.688c-2.592 1.248-5.617 2.208-9.073 2.88s-6.575 1.008-9.359 1.008c-6.048 0-10.752-1.584-14.112-4.752-3.264-3.264-4.896-7.872-4.896-13.824z"/><path d="m468.394 107.56v-75.456h19.296v75.456zm0-85.968v-19.152h19.296v19.152z"/><path d="m539.945 109c-6.144 0-11.664-1.056-16.56-3.168s-9.072-4.944-12.528-8.496c-3.36-3.648-5.952-7.824-7.776-12.528s-2.736-9.648-2.736-14.832c0-5.28.912-10.272 2.736-14.976s4.416-8.832 7.776-12.384c3.456-3.648 7.632-6.528 12.528-8.64s10.416-3.168 16.56-3.168 11.616 1.056 16.416 3.168c4.896 2.112 9.024 4.992 12.384 8.64 3.456 3.552 6.096 7.68 7.92 12.384s2.736 9.696 2.736 14.976c0 5.184-.912 10.128-2.736 14.832s-4.416 8.88-7.776 12.528c-3.36 3.552-7.488 6.384-12.384 8.496s-10.416 3.168-16.56 3.168zm-19.728-39.024c0 3.36.48 6.432 1.44 9.216 1.056 2.688 2.448 5.04 4.176 7.056 1.824 2.016 3.936 3.6 6.336 4.752 2.4 1.056 4.992 1.584 7.776 1.584s5.376-.528 7.776-1.584c2.4-1.152 4.464-2.736 6.192-4.752 1.824-2.016 3.216-4.416 4.176-7.2 1.056-2.784 1.584-5.856 1.584-9.216 0-3.264-.528-6.288-1.584-9.072-.96-2.784-2.352-5.184-4.176-7.2-1.728-2.016-3.792-3.552-6.192-4.608-2.4-1.152-4.992-1.728-7.776-1.728s-5.376.576-7.776 1.728-4.512 2.736-6.336 4.752c-1.728 2.016-3.12 4.416-4.176 7.2-.96 2.784-1.44 5.808-1.44 9.072z"/><path d="m689.803 32.104c-.672-.672-1.92-1.584-3.744-2.736-1.728-1.152-3.888-2.256-6.48-3.312-2.496-1.152-5.232-2.112-8.208-2.88s-6-1.152-9.072-1.152c-5.472 0-9.552 1.008-12.24 3.024s-4.032 4.848-4.032 8.496c0 2.112.48 3.888 1.44 5.328 1.056 1.344 2.544 2.544 4.464 3.6s4.32 2.016 7.2 2.88c2.976.864 6.384 1.776 10.224 2.736 4.992 1.344 9.504 2.784 13.536 4.32 4.128 1.536 7.584 3.456 10.368 5.76 2.88 2.304 5.088 5.088 6.624 8.352 1.536 3.168 2.304 7.104 2.304 11.808 0 5.472-1.056 10.176-3.168 14.112-2.016 3.84-4.8 6.96-8.352 9.36-3.456 2.4-7.488 4.176-12.096 5.328-4.512 1.056-9.264 1.584-14.256 1.584-7.68 0-15.264-1.152-22.752-3.456s-14.208-5.568-20.16-9.792l8.784-17.136c.864.864 2.4 2.016 4.608 3.456 2.304 1.344 4.992 2.736 8.064 4.176 3.072 1.344 6.48 2.496 10.224 3.456s7.584 1.44 11.52 1.44c10.944 0 16.416-3.504 16.416-10.512 0-2.208-.624-4.08-1.872-5.616s-3.024-2.88-5.328-4.032-5.088-2.208-8.352-3.168-6.912-2.016-10.944-3.168c-4.896-1.344-9.168-2.784-12.816-4.32-3.552-1.632-6.528-3.504-8.928-5.616-2.4-2.208-4.224-4.704-5.472-7.488-1.152-2.88-1.728-6.288-1.728-10.224 0-5.184.96-9.792 2.88-13.824s4.56-7.392 7.92-10.08c3.456-2.688 7.44-4.70401 11.952-6.04801 4.512-1.43999 9.36-2.15999 14.544-2.15999 7.2 0 13.824 1.152 19.872 3.456 6.048 2.208 11.328 4.848 15.84 7.92z"/><path d="m715.331 107.56v-75.456h19.296v75.456zm0-85.968v-19.152h19.296v19.152z"/><path d="m797.25 103.672c-2.592 1.152-5.76 2.304-9.504 3.456s-7.68 1.728-11.808 1.728c-2.688 0-5.232-.336-7.632-1.008-2.304-.672-4.368-1.728-6.192-3.168-1.728-1.536-3.12-3.456-4.176-5.76-1.056-2.4-1.584-5.28-1.584-8.64v-43.344h-9.936v-14.832h9.936v-24.48h19.296v24.48h15.84v14.832h-15.84v36.864c0 2.688.672 4.608 2.016 5.76 1.44 1.056 3.168 1.584 5.184 1.584s3.984-.336 5.904-1.008 3.456-1.248 4.608-1.728z"/><path d="m840.464 109c-6.048 0-11.52-1.008-16.416-3.024-4.896-2.112-9.072-4.944-12.528-8.496s-6.144-7.68-8.064-12.384c-1.824-4.704-2.736-9.648-2.736-14.832 0-5.376.912-10.416 2.736-15.12 1.824-4.8 4.464-8.976 7.92-12.528 3.456-3.648 7.632-6.528 12.528-8.64 4.992-2.112 10.56-3.168 16.704-3.168s11.616 1.056 16.416 3.168c4.896 2.112 9.024 4.944 12.384 8.496 3.456 3.552 6.048 7.68 7.776 12.384 1.824 4.704 2.736 9.6 2.736 14.688 0 1.248-.048 2.448-.144 3.6 0 1.152-.096 2.112-.288 2.88h-58.32c.288 2.976 1.008 5.616 2.16 7.92s2.64 4.272 4.464 5.904 3.888 2.88 6.192 3.744 4.704 1.296 7.2 1.296c3.84 0 7.44-.912 10.8-2.736 3.456-1.92 5.808-4.416 7.056-7.488l16.56 4.608c-2.784 5.76-7.248 10.512-13.392 14.256-6.048 3.648-13.296 5.472-21.744 5.472zm19.584-45.504c-.48-5.664-2.592-10.176-6.336-13.536-3.648-3.456-8.112-5.184-13.392-5.184-2.592 0-5.04.48-7.344 1.44-2.208.864-4.176 2.112-5.904 3.744s-3.168 3.6-4.32 5.904c-1.056 2.304-1.68 4.848-1.872 7.632z"/></g></svg>